<?xml version="1.0" encoding="UTF-8" standalone="no"?>
<svg
   xmlns:dc="http://purl.org/dc/elements/1.1/"
   xmlns:cc="http://creativecommons.org/ns#"
   xmlns:rdf="http://www.w3.org/1999/02/22-rdf-syntax-ns#"
   xmlns:svg="http://www.w3.org/2000/svg"
   xmlns="http://www.w3.org/2000/svg"
   xmlns:sodipodi="http://sodipodi.sourceforge.net/DTD/sodipodi-0.dtd"
   xmlns:inkscape="http://www.inkscape.org/namespaces/inkscape"
   version="1.1"
   viewBox="0 0 458.83419 275.03739"
   stroke-miterlimit="10"
   id="svg2"
   inkscape:version="0.48.4 r9939"
   width="100%"
   height="100%"
   sodipodi:docname="scorbot_firmware.pdf"
   style="fill:none;stroke:none">
  <metadata
     id="metadata163">
    <rdf:RDF>
      <cc:Work
         rdf:about="">
        <dc:format>image/svg+xml</dc:format>
        <dc:type
           rdf:resource="http://purl.org/dc/dcmitype/StillImage" />
        <dc:title></dc:title>
      </cc:Work>
    </rdf:RDF>
  </metadata>
  <defs
     id="defs161" />
  <sodipodi:namedview
     pagecolor="#ffffff"
     bordercolor="#666666"
     borderopacity="1"
     objecttolerance="10"
     gridtolerance="10"
     guidetolerance="10"
     inkscape:pageopacity="0"
     inkscape:pageshadow="2"
     inkscape:window-width="1855"
     inkscape:window-height="1056"
     id="namedview159"
     showgrid="false"
     fit-margin-top="5"
     fit-margin-left="5"
     fit-margin-right="5"
     fit-margin-bottom="5"
     inkscape:zoom="1.2166667"
     inkscape:cx="493.65901"
     inkscape:cy="75.899418"
     inkscape:window-x="65"
     inkscape:window-y="24"
     inkscape:window-maximized="1"
     inkscape:current-layer="svg2" />
  <clipPath
     id="p.0">
    <path
       d="M 0,0 960,0 960,720 0,720 0,0 z"
       clip-rule="nonzero"
       id="path5"
       inkscape:connector-curvature="0" />
  </clipPath>
  <path
     style="fill:#ffd966;fill-rule:evenodd"
     inkscape:connector-curvature="0"
     id="path11"
     d="m 324.21783,155.98551 128.75596,0 0,24.15747 -128.75596,0 z" />
  <path
     style="stroke:#000000;stroke-width:1;stroke-linecap:butt;stroke-linejoin:round"
     inkscape:connector-curvature="0"
     id="path13"
     d="m 324.21783,155.98551 128.75596,0 0,24.15747 -128.75596,0 z" />
  <path
     style="fill:#000000;fill-rule:nonzero"
     inkscape:connector-curvature="0"
     id="path15"
     d="m 355.9767,168.50987 0,2.23438 -0.75,0 0,-5.6875 2.10938,0 q 0.92187,0 1.45312,0.48437 0.53125,0.46875 0.53125,1.25 0,0.82813 -0.51562,1.28125 -0.51563,0.4375 -1.48438,0.4375 l -1.34375,0 z m 0,-0.60937 1.35938,0 q 0.59375,0 0.90625,-0.28125 0.32812,-0.28125 0.32812,-0.8125 0,-0.51563 -0.32812,-0.8125 -0.3125,-0.3125 -0.875,-0.32813 l -1.39063,0 0,2.23438 z m 6.79688,2.42187 q -0.42188,0.5 -1.23438,0.5 -0.67187,0 -1.03125,-0.39062 -0.35937,-0.39063 -0.35937,-1.17188 l 0,-2.75 0.71875,0 0,2.73438 q 0,0.96875 0.78125,0.96875 0.82812,0 1.10937,-0.625 l 0,-3.07813 0.71875,0 0,4.23438 -0.6875,0 -0.0156,-0.42188 z m 3.55078,0.5 q -0.85938,0 -1.40625,-0.5625 -0.53125,-0.5625 -0.53125,-1.51562 l 0,-0.125 q 0,-0.64063 0.23437,-1.125 0.25,-0.5 0.67188,-0.78125 0.4375,-0.28125 0.95312,-0.28125 0.8125,0 1.26563,0.54687 0.46875,0.54688 0.46875,1.5625 l 0,0.29688 -2.85938,0 q 0.0156,0.625 0.35938,1.01562 0.34375,0.375 0.89062,0.375 0.375,0 0.64063,-0.15625 0.26562,-0.15625 0.46875,-0.40625 l 0.4375,0.34375 q -0.53125,0.8125 -1.59375,0.8125 z m -0.0781,-3.79687 q -0.4375,0 -0.73437,0.32812 -0.29688,0.3125 -0.375,0.89063 l 2.125,0 0,-0.0625 q -0.0312,-0.54688 -0.29688,-0.84375 -0.26562,-0.3125 -0.71875,-0.3125 z m 3.25391,-0.51563 0.0156,0.53125 q 0.48438,-0.60937 1.26563,-0.60937 1.34375,0 1.35937,1.51562 l 0,2.79688 -0.71875,0 0,-2.79688 q -0.0156,-0.45312 -0.21875,-0.67187 -0.20312,-0.21875 -0.64062,-0.21875 -0.34375,0 -0.60938,0.1875 -0.26562,0.1875 -0.42187,0.48437 l 0,3.01563 -0.71875,0 0,-4.23438 0.6875,0 z m 4.71093,-1.01562 0,1.01562 0.78125,0 0,0.5625 -0.78125,0 0,2.625 q 0,0.25 0.0937,0.375 0.10938,0.125 0.375,0.125 0.125,0 0.34375,-0.0469 l 0,0.59375 q -0.29687,0.0781 -0.5625,0.0781 -0.48437,0 -0.73437,-0.29687 -0.23438,-0.29688 -0.23438,-0.82813 l 0,-2.625 -0.78125,0 0,-0.5625 0.78125,0 0,-1.01562 0.71875,0 z m 3.37891,5.32812 q -0.85937,0 -1.40625,-0.5625 -0.53125,-0.5625 -0.53125,-1.51562 l 0,-0.125 q 0,-0.64063 0.23438,-1.125 0.25,-0.5 0.67187,-0.78125 0.4375,-0.28125 0.95313,-0.28125 0.8125,0 1.26562,0.54687 0.46875,0.54688 0.46875,1.5625 l 0,0.29688 -2.85937,0 q 0.0156,0.625 0.35937,1.01562 0.34375,0.375 0.89063,0.375 0.375,0 0.64062,-0.15625 0.26563,-0.15625 0.46875,-0.40625 l 0.4375,0.34375 q -0.53125,0.8125 -1.59375,0.8125 z m -0.0781,-3.79687 q -0.4375,0 -0.73438,0.32812 -0.29687,0.3125 -0.375,0.89063 l 2.125,0 0,-0.0625 q -0.0312,-0.54688 -0.29687,-0.84375 -0.26563,-0.3125 -0.71875,-0.3125 z m 9.03128,3.71875 -0.75,0 0,-2.625 -2.875,0 0,2.625 -0.75003,0 0,-5.6875 0.75003,0 0,2.4375 2.875,0 0,-2.4375 0.75,0 0,5.6875 z m 3.3086,0 0,-5.6875 1.8593,0 q 0.9375,0 1.3907,0.39062 0.4687,0.375 0.4687,1.125 0,0.39063 -0.2344,0.70313 -0.2187,0.3125 -0.6093,0.46875 0.4687,0.14062 0.7343,0.5 0.2657,0.35937 0.2657,0.85937 0,0.76563 -0.5,1.20313 -0.4844,0.4375 -1.3907,0.4375 l -1.9843,0 z m 0.75,-2.65625 0,2.04687 1.25,0 q 0.5156,0 0.8125,-0.26562 0.3125,-0.28125 0.3125,-0.76563 0,-1.01562 -1.125,-1.01562 l -1.25,0 z m 0,-0.60938 1.1406,0 q 0.4844,0 0.7812,-0.23437 0.2969,-0.25 0.2969,-0.67188 0,-0.46875 -0.2812,-0.6875 -0.2657,-0.21875 -0.8282,-0.21875 l -1.1093,0 0,1.8125 z m 8.1679,-1.8125 -1.8281,0 0,5.07813 -0.75,0 0,-5.07813 -1.8281,0 0,-0.60937 4.4062,0 0,0.60937 z m 5.211,5.07813 -0.75,0 -2.8594,-4.39063 0,4.39063 -0.7656,0 0,-5.6875 0.7656,0 2.8594,4.40625 0,-4.40625 0.75,0 0,5.6875 z m 4.5937,-4.20313 q 0,0.42188 -0.2344,0.76563 -0.2187,0.32812 -0.5937,0.51562 0.4375,0.1875 0.7031,0.5625 0.2656,0.35938 0.2656,0.82813 0,0.73437 -0.5,1.17187 -0.5,0.4375 -1.3125,0.4375 -0.8281,0 -1.3281,-0.4375 -0.4844,-0.4375 -0.4844,-1.17187 0,-0.46875 0.25,-0.82813 0.25,-0.375 0.7032,-0.57812 -0.375,-0.1875 -0.5938,-0.51563 -0.2187,-0.32812 -0.2187,-0.75 0,-0.71875 0.4531,-1.14062 0.4687,-0.42188 1.2187,-0.42188 0.75,0 1.2032,0.42188 0.4687,0.42187 0.4687,1.14062 z m -0.5937,2.65625 q 0,-0.48437 -0.2969,-0.78125 -0.2969,-0.29687 -0.7969,-0.29687 -0.4844,0 -0.7812,0.29687 -0.2969,0.29688 -0.2969,0.78125 0,0.48438 0.2812,0.76563 0.2969,0.26562 0.8125,0.26562 0.5,0 0.7813,-0.28125 0.2969,-0.28125 0.2969,-0.75 z m -1.0782,-3.625 q -0.4218,0 -0.6875,0.26563 -0.2656,0.26562 -0.2656,0.71875 0,0.42187 0.25,0.70312 0.2656,0.26563 0.7031,0.26563 0.4375,0 0.6875,-0.26563 0.2657,-0.28125 0.2657,-0.70312 0,-0.4375 -0.2813,-0.70313 -0.2656,-0.28125 -0.6719,-0.28125 z m 5.4922,2.67188 q -0.2343,0.26562 -0.5468,0.4375 -0.3125,0.15625 -0.6875,0.15625 -0.5,0 -0.8594,-0.23438 -0.3594,-0.25 -0.5625,-0.6875 -0.2031,-0.4375 -0.2031,-0.96875 0,-0.57812 0.2187,-1.03125 0.2188,-0.45312 0.6094,-0.6875 0.4062,-0.25 0.9375,-0.25 0.8437,0 1.3281,0.64063 0.4844,0.625 0.4844,1.70312 l 0,0.21875 q 0,1.65625 -0.6563,2.42188 -0.6562,0.76562 -1.9843,0.78125 l -0.1407,0 0,-0.60938 0.1563,0 q 0.8906,-0.0156 1.375,-0.46875 0.4844,-0.45312 0.5312,-1.42187 z m -1.125,0 q 0.375,0 0.6719,-0.21875 0.3125,-0.23438 0.4531,-0.5625 l 0,-0.28125 q 0,-0.71875 -0.3125,-1.15625 -0.3125,-0.45313 -0.7812,-0.45313 -0.4688,0 -0.7656,0.375 -0.2813,0.35938 -0.2813,0.95313 0,0.59375 0.2656,0.96875 0.2813,0.375 0.75,0.375 z m 6.2891,-1.70313 q 0,0.42188 -0.2344,0.76563 -0.2187,0.32812 -0.5937,0.51562 0.4375,0.1875 0.7031,0.5625 0.2656,0.35938 0.2656,0.82813 0,0.73437 -0.5,1.17187 -0.5,0.4375 -1.3125,0.4375 -0.8281,0 -1.3281,-0.4375 -0.4844,-0.4375 -0.4844,-1.17187 0,-0.46875 0.25,-0.82813 0.25,-0.375 0.7031,-0.57812 -0.375,-0.1875 -0.5937,-0.51563 -0.2188,-0.32812 -0.2188,-0.75 0,-0.71875 0.4532,-1.14062 0.4687,-0.42188 1.2187,-0.42188 0.75,0 1.2031,0.42188 0.4688,0.42187 0.4688,1.14062 z m -0.5938,2.65625 q 0,-0.48437 -0.2968,-0.78125 -0.2969,-0.29687 -0.7969,-0.29687 -0.4844,0 -0.7813,0.29687 -0.2968,0.29688 -0.2968,0.78125 0,0.48438 0.2812,0.76563 0.2969,0.26562 0.8125,0.26562 0.5,0 0.7813,-0.28125 0.2968,-0.28125 0.2968,-0.75 z m -1.0781,-3.625 q -0.4219,0 -0.6875,0.26563 -0.2656,0.26562 -0.2656,0.71875 0,0.42187 0.25,0.70312 0.2656,0.26563 0.7031,0.26563 0.4375,0 0.6875,-0.26563 0.2656,-0.28125 0.2656,-0.70312 0,-0.4375 -0.2812,-0.70313 -0.2656,-0.28125 -0.6719,-0.28125 z m 6.4453,5.17188 -3.7343,0 0,-0.51563 1.9687,-2.1875 q 0.4375,-0.5 0.6094,-0.8125 0.1719,-0.3125 0.1719,-0.64062 0,-0.45313 -0.2813,-0.73438 -0.2656,-0.28125 -0.7187,-0.28125 -0.5313,0 -0.8282,0.3125 -0.2968,0.29688 -0.2968,0.84375 l -0.7344,0 q 0,-0.78125 0.5,-1.26562 0.5156,-0.48438 1.3594,-0.48438 0.7968,0 1.25,0.42188 0.4687,0.40625 0.4687,1.09375 0,0.84375 -1.0625,2 l -1.5312,1.65625 2.8593,0 0,0.59375 z" />
  <path
     style="fill:#ffd966;fill-rule:evenodd"
     inkscape:connector-curvature="0"
     id="path17"
     d="m 324.21783,118.85033 128.75596,0 0,24.15749 -128.75596,0 z" />
  <path
     style="stroke:#000000;stroke-width:1;stroke-linecap:butt;stroke-linejoin:round"
     inkscape:connector-curvature="0"
     id="path19"
     d="m 324.21783,118.85033 128.75596,0 0,24.15749 -128.75596,0 z" />
  <path
     style="fill:#000000;fill-rule:nonzero"
     inkscape:connector-curvature="0"
     id="path21"
     d="m 340.7814,131.07782 q -0.96875,-0.28125 -1.40625,-0.6875 -0.4375,-0.40625 -0.4375,-1 0,-0.67187 0.53125,-1.10937 0.53125,-0.4375 1.39062,-0.4375 0.59375,0 1.04688,0.23437 0.46875,0.21875 0.71875,0.625 0.25,0.39063 0.25,0.85938 l -0.75,0 q 0,-0.51563 -0.32813,-0.8125 -0.32812,-0.29688 -0.9375,-0.29688 -0.54687,0 -0.85937,0.25 -0.3125,0.25 -0.3125,0.67188 0,0.35937 0.29687,0.59375 0.29688,0.23437 1,0.4375 0.71875,0.20312 1.10938,0.45312 0.40625,0.23438 0.59375,0.5625 0.20312,0.3125 0.20312,0.73438 0,0.70312 -0.54687,1.125 -0.53125,0.40625 -1.4375,0.40625 -0.59375,0 -1.10938,-0.21875 -0.5,-0.23438 -0.78125,-0.625 -0.26562,-0.39063 -0.26562,-0.89063 l 0.75,0 q 0,0.51563 0.375,0.82813 0.39062,0.29687 1.03125,0.29687 0.59375,0 0.90625,-0.23437 0.3125,-0.25 0.3125,-0.67188 0,-0.42187 -0.29688,-0.64062 -0.28125,-0.23438 -1.04687,-0.45313 z m 4.69922,2.60938 q -0.85938,0 -1.40625,-0.5625 -0.53125,-0.5625 -0.53125,-1.51563 l 0,-0.125 q 0,-0.64062 0.23437,-1.125 0.25,-0.5 0.67188,-0.78125 0.4375,-0.28125 0.95312,-0.28125 0.8125,0 1.26563,0.54688 0.46875,0.54687 0.46875,1.5625 l 0,0.29687 -2.85938,0 q 0.0156,0.625 0.35938,1.01563 0.34375,0.375 0.89062,0.375 0.375,0 0.64063,-0.15625 0.26562,-0.15625 0.46875,-0.40625 l 0.4375,0.34375 q -0.53125,0.8125 -1.59375,0.8125 z m -0.0781,-3.79688 q -0.4375,0 -0.73437,0.32813 -0.29688,0.3125 -0.375,0.89062 l 2.125,0 0,-0.0625 q -0.0312,-0.54687 -0.29688,-0.84375 -0.26562,-0.3125 -0.71875,-0.3125 z m 3.25391,-0.51562 0.0156,0.53125 q 0.48438,-0.60938 1.26563,-0.60938 1.34375,0 1.35937,1.51563 l 0,2.79687 -0.71875,0 0,-2.79687 q -0.0156,-0.45313 -0.21875,-0.67188 -0.20312,-0.21875 -0.64062,-0.21875 -0.34375,0 -0.60938,0.1875 -0.26562,0.1875 -0.42187,0.48438 l 0,3.01562 -0.71875,0 0,-4.23437 0.6875,0 z m 6.19531,3.10937 q 0,-0.29687 -0.23437,-0.45312 -0.21875,-0.15625 -0.76563,-0.26563 -0.54687,-0.125 -0.875,-0.28125 -0.3125,-0.17187 -0.46875,-0.39062 -0.15625,-0.23438 -0.15625,-0.54688 0,-0.53125 0.4375,-0.89062 0.4375,-0.35938 1.125,-0.35938 0.71875,0 1.15625,0.375 0.45313,0.375 0.45313,0.95313 l -0.71875,0 q 0,-0.29688 -0.25,-0.51563 -0.25,-0.21875 -0.64063,-0.21875 -0.39062,0 -0.625,0.17188 -0.21875,0.17187 -0.21875,0.45312 0,0.26563 0.20313,0.40625 0.21875,0.125 0.75,0.25 0.54687,0.10938 0.875,0.28125 0.34375,0.17188 0.5,0.40625 0.17187,0.23438 0.17187,0.57813 0,0.5625 -0.45312,0.90625 -0.45313,0.34375 -1.17188,0.34375 -0.51562,0 -0.90625,-0.17188 -0.39062,-0.1875 -0.60937,-0.5 -0.21875,-0.32812 -0.21875,-0.70312 l 0.71875,0 q 0.0156,0.35937 0.28125,0.57812 0.28125,0.20313 0.73437,0.20313 0.40625,0 0.65625,-0.15625 0.25,-0.17188 0.25,-0.45313 z m 1.46875,-1.03125 q 0,-0.625 0.23438,-1.10937 0.25,-0.5 0.6875,-0.76563 0.4375,-0.28125 1,-0.28125 0.85937,0 1.39062,0.60938 0.53125,0.59375 0.53125,1.57812 l 0,0.0625 q 0,0.60938 -0.23437,1.10938 -0.23438,0.48437 -0.67188,0.76562 -0.4375,0.26563 -1.01562,0.26563 -0.85938,0 -1.39063,-0.59375 -0.53125,-0.60938 -0.53125,-1.59375 l 0,-0.0469 z m 0.71875,0.0937 q 0,0.70313 0.32813,1.125 0.32812,0.42188 0.875,0.42188 0.54687,0 0.875,-0.42188 0.32812,-0.4375 0.32812,-1.21875 0,-0.6875 -0.32812,-1.125 -0.32813,-0.4375 -0.875,-0.4375 -0.54688,0 -0.875,0.4375 -0.32813,0.42188 -0.32813,1.21875 z m 6.07813,-1.51562 q -0.17188,-0.0312 -0.35938,-0.0312 -0.70312,0 -0.96875,0.60937 l 0,3 -0.71875,0 0,-4.23437 0.70313,0 0.0156,0.5 q 0.35938,-0.57813 1,-0.57813 0.21875,0 0.32813,0.0625 l 0,0.67188 z m 2.46875,1.42187 q 0,-0.96875 0.45312,-1.5625 0.46875,-0.59375 1.21875,-0.59375 0.73438,0 1.17188,0.51563 l 0,-2.20313 0.71875,0 0,6 -0.65625,0 -0.0469,-0.45312 q -0.42187,0.53125 -1.20312,0.53125 -0.73438,0 -1.20313,-0.59375 -0.45312,-0.60938 -0.45312,-1.57813 l 0,-0.0625 z m 0.71875,0.0937 q 0,0.71875 0.29687,1.125 0.29688,0.40625 0.82813,0.40625 0.6875,0 1,-0.625 l 0,-1.9375 q -0.32813,-0.59375 -1,-0.59375 -0.53125,0 -0.82813,0.40625 -0.29687,0.40625 -0.29687,1.21875 z m 5.71484,2.14063 q -0.85937,0 -1.40625,-0.5625 -0.53125,-0.5625 -0.53125,-1.51563 l 0,-0.125 q 0,-0.64062 0.23438,-1.125 0.25,-0.5 0.67187,-0.78125 0.4375,-0.28125 0.95313,-0.28125 0.8125,0 1.26562,0.54688 0.46875,0.54687 0.46875,1.5625 l 0,0.29687 -2.85937,0 q 0.0156,0.625 0.35937,1.01563 0.34375,0.375 0.89063,0.375 0.375,0 0.64062,-0.15625 0.26563,-0.15625 0.46875,-0.40625 l 0.4375,0.34375 q -0.53125,0.8125 -1.59375,0.8125 z m -0.0781,-3.79688 q -0.4375,0 -0.73438,0.32813 -0.29687,0.3125 -0.375,0.89062 l 2.125,0 0,-0.0625 q -0.0312,-0.54687 -0.29687,-0.84375 -0.26563,-0.3125 -0.71875,-0.3125 z m 6.25,3.20313 q 0.375,0 0.65625,-0.23438 0.29687,-0.23437 0.32812,-0.57812 l 0.6875,0 q -0.0156,0.35937 -0.25,0.6875 -0.23437,0.32812 -0.625,0.53125 -0.375,0.1875 -0.79687,0.1875 -0.875,0 -1.39063,-0.57813 -0.5,-0.57812 -0.5,-1.57812 l 0,-0.125 q 0,-0.60938 0.21875,-1.09375 0.23438,-0.48438 0.65625,-0.75 0.42188,-0.26563 1,-0.26563 0.71875,0 1.1875,0.4375 0.46875,0.42188 0.5,1.09375 l -0.6875,0 q -0.0312,-0.40625 -0.3125,-0.67187 -0.26562,-0.26563 -0.6875,-0.26563 -0.54687,0 -0.85937,0.40625 -0.29688,0.39063 -0.29688,1.14063 l 0,0.14062 q 0,0.73438 0.29688,1.125 0.3125,0.39063 0.875,0.39063 z m 2.29687,-1.64063 q 0,-0.625 0.23438,-1.10937 0.25,-0.5 0.6875,-0.76563 0.4375,-0.28125 1,-0.28125 0.85933,0 1.39063,0.60938 0.5312,0.59375 0.5312,1.57812 l 0,0.0625 q 0,0.60938 -0.2343,1.10938 -0.2344,0.48437 -0.6719,0.76562 -0.4375,0.26563 -1.01563,0.26563 -0.85938,0 -1.39063,-0.59375 -0.53125,-0.60938 -0.53125,-1.59375 l 0,-0.0469 z m 0.71875,0.0937 q 0,0.70313 0.32813,1.125 0.32812,0.42188 0.875,0.42188 0.54683,0 0.87503,-0.42188 0.3281,-0.4375 0.3281,-1.21875 0,-0.6875 -0.3281,-1.125 -0.3282,-0.4375 -0.87503,-0.4375 -0.54688,0 -0.875,0.4375 -0.32813,0.42188 -0.32813,1.21875 z m 6.07816,-1.51562 q -0.1719,-0.0312 -0.3594,-0.0312 -0.7031,0 -0.9688,0.60937 l 0,3 -0.7187,0 0,-4.23437 0.7031,0 0.016,0.5 q 0.3594,-0.57813 1,-0.57813 0.2188,0 0.3282,0.0625 l 0,0.67188 z m 2.707,0 q -0.1719,-0.0312 -0.3594,-0.0312 -0.7031,0 -0.9687,0.60937 l 0,3 -0.7188,0 0,-4.23437 0.7032,0 0.016,0.5 q 0.3593,-0.57813 1,-0.57813 0.2187,0 0.3281,0.0625 l 0,0.67188 z m 1.4414,3.57812 -0.7187,0 0,-4.23437 0.7187,0 0,4.23437 z m -0.7812,-5.34375 q 0,-0.1875 0.1093,-0.29687 0.1094,-0.125 0.3125,-0.125 0.2188,0 0.3282,0.125 0.1093,0.10937 0.1093,0.29687 0,0.17188 -0.1093,0.29688 -0.1094,0.10937 -0.3282,0.10937 -0.2031,0 -0.3125,-0.10937 -0.1093,-0.125 -0.1093,-0.29688 z m 3.6914,5.42188 q -0.8594,0 -1.4063,-0.5625 -0.5312,-0.5625 -0.5312,-1.51563 l 0,-0.125 q 0,-0.64062 0.2343,-1.125 0.25,-0.5 0.6719,-0.78125 0.4375,-0.28125 0.9531,-0.28125 0.8125,0 1.2657,0.54688 0.4687,0.54687 0.4687,1.5625 l 0,0.29687 -2.8594,0 q 0.016,0.625 0.3594,1.01563 0.3438,0.375 0.8906,0.375 0.375,0 0.6407,-0.15625 0.2656,-0.15625 0.4687,-0.40625 l 0.4375,0.34375 q -0.5312,0.8125 -1.5937,0.8125 z m -0.078,-3.79688 q -0.4375,0 -0.7344,0.32813 -0.2969,0.3125 -0.375,0.89062 l 2.125,0 0,-0.0625 q -0.031,-0.54687 -0.2969,-0.84375 -0.2656,-0.3125 -0.7187,-0.3125 z m 3.2539,-0.51562 0.016,0.53125 q 0.4843,-0.60938 1.2656,-0.60938 1.3437,0 1.3594,1.51563 l 0,2.79687 -0.7188,0 0,-2.79687 q -0.016,-0.45313 -0.2187,-0.67188 -0.2032,-0.21875 -0.6407,-0.21875 -0.3437,0 -0.6093,0.1875 -0.2657,0.1875 -0.4219,0.48438 l 0,3.01562 -0.7188,0 0,-4.23437 0.6875,0 z m 4.7109,-1.01563 0,1.01563 0.7813,0 0,0.5625 -0.7813,0 0,2.625 q 0,0.25 0.094,0.375 0.1094,0.125 0.375,0.125 0.125,0 0.3438,-0.0469 l 0,0.59375 q -0.2969,0.0781 -0.5625,0.0781 -0.4844,0 -0.7344,-0.29688 -0.2344,-0.29687 -0.2344,-0.82812 l 0,-2.625 -0.7812,0 0,-0.5625 0.7812,0 0,-1.01563 0.7188,0 z m 3.3789,5.32813 q -0.8594,0 -1.4062,-0.5625 -0.5313,-0.5625 -0.5313,-1.51563 l 0,-0.125 q 0,-0.64062 0.2344,-1.125 0.25,-0.5 0.6719,-0.78125 0.4375,-0.28125 0.9531,-0.28125 0.8125,0 1.2656,0.54688 0.4688,0.54687 0.4688,1.5625 l 0,0.29687 -2.8594,0 q 0.016,0.625 0.3594,1.01563 0.3437,0.375 0.8906,0.375 0.375,0 0.6406,-0.15625 0.2656,-0.15625 0.4688,-0.40625 l 0.4375,0.34375 q -0.5313,0.8125 -1.5938,0.8125 z m -0.078,-3.79688 q -0.4375,0 -0.7344,0.32813 -0.2968,0.3125 -0.375,0.89062 l 2.125,0 0,-0.0625 q -0.031,-0.54687 -0.2968,-0.84375 -0.2657,-0.3125 -0.7188,-0.3125 z m 8.5938,-1.35937 -1.8282,0 0,5.07812 -0.75,0 0,-5.07812 -1.8281,0 0,-0.60938 4.4063,0 0,0.60938 z m 1.6015,4.46875 2.6875,0 0,0.60937 -3.4531,0 0,-5.6875 0.7656,0 0,5.07813 z m 4.3516,0.60937 -0.75,0 0,-5.6875 0.75,0 0,5.6875 z m 4.2383,-1.90625 0.7812,0 0,0.57813 -0.7812,0 0,1.32812 -0.7344,0 0,-1.32812 -2.5938,0 0,-0.42188 2.5469,-3.9375 0.7813,0 0,3.78125 z m -2.5,0 1.7656,0 0,-2.79687 -0.078,0.15625 -1.6875,2.64062 z m 6.7109,-0.59375 q -0.2344,0.26563 -0.5469,0.4375 -0.3125,0.15625 -0.6875,0.15625 -0.5,0 -0.8593,-0.23437 -0.3594,-0.25 -0.5625,-0.6875 -0.2032,-0.4375 -0.2032,-0.96875 0,-0.57813 0.2188,-1.03125 0.2187,-0.45313 0.6094,-0.6875 0.4062,-0.25 0.9375,-0.25 0.8437,0 1.3281,0.64062 0.4844,0.625 0.4844,1.70313 l 0,0.21875 q 0,1.65625 -0.6563,2.42187 -0.6562,0.76563 -1.9844,0.78125 l -0.1406,0 0,-0.60937 0.1563,0 q 0.8906,-0.0156 1.375,-0.46875 0.4843,-0.45313 0.5312,-1.42188 z m -1.125,0 q 0.375,0 0.6719,-0.21875 0.3125,-0.23437 0.4531,-0.5625 l 0,-0.28125 q 0,-0.71875 -0.3125,-1.15625 -0.3125,-0.45312 -0.7812,-0.45312 -0.4688,0 -0.7657,0.375 -0.2812,0.35937 -0.2812,0.95312 0,0.59375 0.2656,0.96875 0.2813,0.375 0.75,0.375 z m 6.5078,-2.78125 -2.3437,5.28125 -0.7657,0 2.3438,-5.09375 -3.0781,0 0,-0.59375 3.8437,0 0,0.40625 z m 4.3985,2.85938 q 0,1.26562 -0.4375,1.89062 -0.4375,0.60938 -1.3594,0.60938 -0.9063,0 -1.3438,-0.59375 -0.4375,-0.60938 -0.4531,-1.8125 l 0,-0.96875 q 0,-1.25 0.4219,-1.85938 0.4375,-0.60937 1.375,-0.60937 0.9062,0 1.3437,0.59375 0.4375,0.57812 0.4532,1.8125 l 0,0.9375 z m -0.7344,-1 q 0,-0.90625 -0.2656,-1.32813 -0.25,-0.42187 -0.7969,-0.42187 -0.5625,0 -0.8125,0.42187 -0.25,0.40625 -0.2656,1.28125 l 0,1.15625 q 0,0.92188 0.2656,1.35938 0.2656,0.4375 0.8125,0.4375 0.5312,0 0.7969,-0.40625 0.2656,-0.42188 0.2656,-1.3125 l 0,-1.1875 z" />
  <path
     style="fill:#93c47d;fill-rule:evenodd"
     inkscape:connector-curvature="0"
     id="path23"
     d="m 239.65094,165.62197 42.29919,0 0,24.15747 -42.29919,0 z" />
  <path
     style="stroke:#000000;stroke-width:1;stroke-linecap:butt;stroke-linejoin:round"
     inkscape:connector-curvature="0"
     id="path25"
     d="m 239.65094,165.62197 42.29919,0 0,24.15747 -42.29919,0 z" />
  <path
     style="fill:#000000;fill-rule:nonzero"
     inkscape:connector-curvature="0"
     id="path27"
     d="m 254.09546,178.13074 0,-0.67188 2.42187,0 0,2.125 q -0.54687,0.4375 -1.14062,0.67188 -0.59375,0.21875 -1.21875,0.21875 -0.84375,0 -1.54688,-0.35938 -0.6875,-0.35937 -1.04687,-1.04687 -0.34375,-0.6875 -0.34375,-1.53125 0,-0.82813 0.34375,-1.54688 0.35937,-0.73437 1.01562,-1.07812 0.65625,-0.35938 1.51563,-0.35938 0.625,0 1.125,0.20313 0.5,0.20312 0.78125,0.5625 0.28125,0.35937 0.4375,0.9375 l -0.6875,0.1875 q -0.125,-0.4375 -0.32813,-0.6875 -0.1875,-0.25 -0.54687,-0.39063 -0.34375,-0.15625 -0.78125,-0.15625 -0.51563,0 -0.90625,0.15625 -0.375,0.15625 -0.60938,0.42188 -0.21875,0.25 -0.35937,0.5625 -0.21875,0.53125 -0.21875,1.14062 0,0.76563 0.26562,1.28125 0.26563,0.51563 0.76563,0.76563 0.51562,0.25 1.07812,0.25 0.48438,0 0.95313,-0.1875 0.46875,-0.1875 0.71875,-0.40625 l 0,-1.0625 -1.6875,0 z m 3.55078,2.25 0,-5.73438 2.15625,0 q 0.5625,0 0.875,0.0625 0.42188,0.0625 0.70313,0.26563 0.28125,0.20312 0.45312,0.5625 0.17188,0.34375 0.17188,0.76562 0,0.73438 -0.46875,1.25 -0.45313,0.5 -1.67188,0.5 l -1.46875,0 0,2.32813 -0.75,0 z m 0.75,-3 1.48438,0 q 0.73437,0 1.03125,-0.26563 0.3125,-0.28125 0.3125,-0.78125 0,-0.35937 -0.1875,-0.60937 -0.17188,-0.26563 -0.46875,-0.34375 -0.1875,-0.0469 -0.70313,-0.0469 l -1.46875,0 0,2.04688 z m 4.71094,3 0,-5.73438 0.75,0 0,5.73438 -0.75,0 z m 1.86328,-2.79688 q 0,-1.42187 0.76562,-2.21875 0.76563,-0.8125 1.96875,-0.8125 0.79688,0 1.4375,0.375 0.64063,0.375 0.96875,1.0625 0.32813,0.67188 0.32813,1.53125 0,0.875 -0.35938,1.5625 -0.34375,0.6875 -0.98437,1.04688 -0.64063,0.34375 -1.39063,0.34375 -0.8125,0 -1.45312,-0.39063 -0.625,-0.39062 -0.95313,-1.0625 -0.32812,-0.67187 -0.32812,-1.4375 z m 0.78125,0.0156 q 0,1.03125 0.54687,1.64062 0.5625,0.59375 1.40625,0.59375 0.85938,0 1.40625,-0.59375 0.54688,-0.60937 0.54688,-1.71875 0,-0.70312 -0.23438,-1.21875 -0.23437,-0.53125 -0.6875,-0.8125 -0.45312,-0.28125 -1.01562,-0.28125 -0.8125,0 -1.39063,0.54688 -0.57812,0.54687 -0.57812,1.84375 z" />
  <path
     style="fill:#93c47d;fill-rule:evenodd"
     inkscape:connector-curvature="0"
     id="path29"
     d="m 239.65094,143.00913 42.29919,0 0,24.15747 -42.29919,0 z" />
  <path
     style="stroke:#000000;stroke-width:1;stroke-linecap:butt;stroke-linejoin:round"
     inkscape:connector-curvature="0"
     id="path31"
     d="m 239.65094,143.00913 42.29919,0 0,24.15747 -42.29919,0 z" />
  <path
     style="fill:#000000;fill-rule:nonzero"
     inkscape:connector-curvature="0"
     id="path33"
     d="m 251.65015,157.76787 0,-5.73438 2.15625,0 q 0.5625,0 0.875,0.0625 0.42188,0.0625 0.70313,0.26563 0.28125,0.20312 0.45312,0.5625 0.17188,0.34375 0.17188,0.76562 0,0.73438 -0.46875,1.25 -0.45313,0.5 -1.67188,0.5 l -1.46875,0 0,2.32813 -0.75,0 z m 0.75,-3 1.48438,0 q 0.73437,0 1.03125,-0.26563 0.3125,-0.28125 0.3125,-0.78125 0,-0.35937 -0.1875,-0.60937 -0.17188,-0.26563 -0.46875,-0.34375 -0.1875,-0.0469 -0.70313,-0.0469 l -1.46875,0 0,2.04688 z m 5.58594,3 -1.53125,-5.73438 0.78125,0 0.875,3.76563 q 0.14062,0.57812 0.23437,1.17187 0.21875,-0.92187 0.26563,-1.0625 l 1.09375,-3.875 0.90625,0 0.82812,2.90625 q 0.29688,1.07813 0.4375,2.03125 0.10938,-0.54687 0.28125,-1.25 l 0.90625,-3.6875 0.76563,0 -1.57813,5.73438 -0.73437,0 -1.20313,-4.35938 q -0.15625,-0.54687 -0.17187,-0.67187 -0.0937,0.39062 -0.17188,0.67187 l -1.21875,4.35938 -0.76562,0 z m 6.51953,0 0,-5.73438 1.14062,0 1.35938,4.0625 q 0.1875,0.5625 0.26562,0.84375 0.10938,-0.3125 0.3125,-0.92187 l 1.375,-3.98438 1.01563,0 0,5.73438 -0.73438,0 0,-4.79688 -1.65625,4.79688 -0.6875,0 -1.65625,-4.875 0,4.875 -0.73437,0 z" />
  <path
     style="fill:#93c47d;fill-rule:evenodd"
     inkscape:connector-curvature="0"
     id="path35"
     d="m 239.65094,118.85164 42.29919,0 0,24.15749 -42.29919,0 z" />
  <path
     style="stroke:#000000;stroke-width:1;stroke-linecap:butt;stroke-linejoin:round"
     inkscape:connector-curvature="0"
     id="path37"
     d="m 239.65094,118.85164 42.29919,0 0,24.15749 -42.29919,0 z" />
  <path
     style="fill:#000000;fill-rule:nonzero"
     inkscape:connector-curvature="0"
     id="path39"
     d="m 254.71265,131.76664 0.71875,-0.0625 q 0.0469,0.4375 0.23438,0.71875 0.1875,0.26562 0.57812,0.4375 0.39063,0.17187 0.875,0.17187 0.4375,0 0.76563,-0.125 0.32812,-0.14062 0.48437,-0.35937 0.17188,-0.23438 0.17188,-0.5 0,-0.26563 -0.15625,-0.46875 -0.15625,-0.20313 -0.51563,-0.32813 -0.23437,-0.0937 -1.03125,-0.28125 -0.78125,-0.1875 -1.09375,-0.35937 -0.40625,-0.21875 -0.60937,-0.53125 -0.20313,-0.32813 -0.20313,-0.71875 0,-0.4375 0.25,-0.8125 0.25,-0.375 0.71875,-0.5625 0.46875,-0.20313 1.04688,-0.20313 0.64062,0 1.125,0.20313 0.48437,0.20312 0.75,0.60937 0.26562,0.39063 0.28125,0.90625 l -0.73438,0.0469 q -0.0469,-0.54688 -0.39062,-0.8125 -0.34375,-0.28125 -1,-0.28125 -0.6875,0 -1,0.25 -0.3125,0.25 -0.3125,0.60937 0,0.3125 0.21875,0.5 0.21875,0.20313 1.14062,0.42188 0.92188,0.20312 1.26563,0.35937 0.5,0.23438 0.73437,0.59375 0.25,0.34375 0.25,0.79688 0,0.46875 -0.26562,0.875 -0.26563,0.39062 -0.75,0.625 -0.48438,0.21875 -1.10938,0.21875 -0.76562,0 -1.29687,-0.21875 -0.53125,-0.23438 -0.82813,-0.6875 -0.29687,-0.45313 -0.3125,-1.03125 z m 5.60156,1.84375 0,-5.73438 2.15625,0 q 0.5625,0 0.875,0.0625 0.42188,0.0625 0.70313,0.26563 0.28125,0.20312 0.45312,0.5625 0.17188,0.34375 0.17188,0.76562 0,0.73438 -0.46875,1.25 -0.45313,0.5 -1.67188,0.5 l -1.46875,0 0,2.32813 -0.75,0 z m 0.75,-3 1.48438,0 q 0.73437,0 1.03125,-0.26563 0.3125,-0.28125 0.3125,-0.78125 0,-0.35937 -0.1875,-0.60937 -0.17188,-0.26563 -0.46875,-0.34375 -0.1875,-0.0469 -0.70313,-0.0469 l -1.46875,0 0,2.04688 z m 4.71094,3 0,-5.73438 0.75,0 0,5.73438 -0.75,0 z" />
  <path
     style="fill:#93c47d;fill-rule:evenodd"
     inkscape:connector-curvature="0"
     id="path41"
     d="m 240.0236,242.50519 42.29919,0 0,24.15747 -42.29919,0 z" />
  <path
     style="stroke:#000000;stroke-width:1;stroke-linecap:butt;stroke-linejoin:round"
     inkscape:connector-curvature="0"
     id="path43"
     d="m 240.0236,242.50519 42.29919,0 0,24.15747 -42.29919,0 z" />
  <path
     style="fill:#000000;fill-rule:nonzero"
     inkscape:connector-curvature="0"
     id="path45"
     d="m 260.34705,256.65455 q 0.53125,0.35938 0.98437,0.53125 l -0.23437,0.53125 q -0.60938,-0.23437 -1.21875,-0.71875 -0.64063,0.35938 -1.40625,0.35938 -0.78125,0 -1.42188,-0.375 -0.625,-0.375 -0.96875,-1.04688 -0.34375,-0.6875 -0.34375,-1.53125 0,-0.85937 0.34375,-1.54687 0.34375,-0.70313 0.96875,-1.0625 0.64063,-0.35938 1.4375,-0.35938 0.78125,0 1.42188,0.375 0.64062,0.375 0.96875,1.0625 0.34375,0.67188 0.34375,1.51563 0,0.71875 -0.21875,1.28125 -0.21875,0.5625 -0.65625,0.98437 z m -1.65625,-0.96875 q 0.65625,0.17188 1.07812,0.54688 0.67188,-0.60938 0.67188,-1.84375 0,-0.6875 -0.25,-1.20313 -0.23438,-0.53125 -0.6875,-0.8125 -0.45313,-0.28125 -1.01563,-0.28125 -0.84375,0 -1.40625,0.57813 -0.5625,0.57812 -0.5625,1.73437 0,1.10938 0.54688,1.71875 0.5625,0.59375 1.42187,0.59375 0.40625,0 0.76563,-0.15625 -0.35938,-0.23437 -0.75,-0.32812 l 0.1875,-0.54688 z m 3.56641,1.57813 0,-5.73438 4.14062,0 0,0.6875 -3.39062,0 0,1.75 3.17187,0 0,0.67188 -3.17187,0 0,1.95312 3.51562,0 0,0.67188 -4.26562,0 z" />
  <path
     style="fill:#cfe2f3;fill-rule:evenodd"
     inkscape:connector-curvature="0"
     id="path47"
     d="m 94.42258,65.226981 117.7323,0 0,26.92912 -117.7323,0 z" />
  <path
     style="stroke:#000000;stroke-width:1;stroke-linecap:butt;stroke-linejoin:round"
     inkscape:connector-curvature="0"
     id="path49"
     d="m 94.42258,65.226981 117.7323,0 0,26.92912 -117.7323,0 z" />
  <path
     style="fill:#000000;fill-rule:nonzero"
     inkscape:connector-curvature="0"
     id="path51"
     d="m 110.93256,82.431541 0,-7.875 5.6875,0 0,0.9375 -4.65625,0 0,2.40625 4.35937,0 0,0.92187 -4.35937,0 0,2.6875 4.84375,0 0,0.92188 -5.875,0 z m 9.07639,-0.85938 0.125,0.84375 q -0.40625,0.0937 -0.71875,0.0937 -0.53125,0 -0.82813,-0.17187 -0.28125,-0.17188 -0.40625,-0.4375 -0.10937,-0.26563 -0.10937,-1.14063 l 0,-3.28125 -0.71875,0 0,-0.75 0.71875,0 0,-1.40625 0.95312,-0.59375 0,2 0.98438,0 0,0.75 -0.98438,0 0,3.34375 q 0,0.40625 0.0469,0.53125 0.0625,0.10938 0.17187,0.1875 0.125,0.0625 0.32813,0.0625 0.17187,0 0.4375,-0.0312 z m 0.83563,0.85938 0,-7.875 0.96875,0 0,2.82812 q 0.6875,-0.78125 1.71875,-0.78125 0.625,0 1.09375,0.25 0.46875,0.25 0.67187,0.6875 0.20313,0.4375 0.20313,1.28125 l 0,3.60938 -0.96875,0 0,-3.60938 q 0,-0.73437 -0.3125,-1.0625 -0.3125,-0.32812 -0.89063,-0.32812 -0.4375,0 -0.8125,0.21875 -0.375,0.21875 -0.54687,0.60937 -0.15625,0.375 -0.15625,1.04688 l 0,3.125 -0.96875,0 z m 9.83276,-1.84375 1,0.125 q -0.23437,0.875 -0.875,1.35937 -0.64062,0.48438 -1.625,0.48438 -1.25,0 -1.98437,-0.76563 -0.73438,-0.76562 -0.73438,-2.15625 0,-1.45312 0.73438,-2.23437 0.75,-0.79688 1.92187,-0.79688 1.15625,0 1.875,0.78125 0.71875,0.76563 0.71875,2.1875 0,0.0781 0,0.25 l -4.25,0 q 0.0469,0.9375 0.51563,1.4375 0.48437,0.5 1.20312,0.5 0.53125,0 0.90625,-0.26562 0.375,-0.28125 0.59375,-0.90625 z m -3.17187,-1.5625 3.1875,0 q -0.0625,-0.71875 -0.35938,-1.07813 -0.46875,-0.54687 -1.20312,-0.54687 -0.67188,0 -1.125,0.45312 -0.45313,0.4375 -0.5,1.17188 z m 5.1921,3.40625 0,-5.70313 0.85938,0 0,0.85938 q 0.34375,-0.60938 0.625,-0.79688 0.28125,-0.1875 0.60937,-0.1875 0.5,0 1,0.3125 l -0.32812,0.89063 q -0.35938,-0.20313 -0.71875,-0.20313 -0.3125,0 -0.5625,0.1875 -0.25,0.1875 -0.35938,0.53125 -0.15625,0.51563 -0.15625,1.125 l 0,2.98438 -0.96875,0 z m 9.29862,-2.76563 1.04687,0.26563 q -0.32812,1.28125 -1.1875,1.96875 -0.84375,0.67187 -2.07812,0.67187 -1.28125,0 -2.07813,-0.51562 -0.79687,-0.53125 -1.21875,-1.51563 -0.40625,-0.98437 -0.40625,-2.10937 0,-1.21875 0.46875,-2.14063 0.46875,-0.92187 1.32813,-1.39062 0.875,-0.48438 1.92187,-0.48438 1.1875,0 1.98438,0.60938 0.8125,0.59375 1.125,1.6875 l -1.03125,0.25 q -0.26563,-0.85938 -0.79688,-1.25 -0.51562,-0.39063 -1.29687,-0.39063 -0.92188,0 -1.53125,0.4375 -0.60938,0.42188 -0.85938,1.15625 -0.23437,0.73438 -0.23437,1.51563 0,1 0.28125,1.75 0.29687,0.75 0.90625,1.125 0.625,0.375 1.34375,0.375 0.875,0 1.48437,-0.5 0.60938,-0.51563 0.82813,-1.51563 z m 1.21124,2.76563 3.03125,-7.875 1.10938,0 3.23437,7.875 -1.1875,0 -0.92187,-2.39063 -3.29688,0 -0.85937,2.39063 -1.10938,0 z m 2.26563,-3.23438 2.67187,0 -0.8125,-2.1875 q -0.375,-0.98437 -0.5625,-1.625 -0.15625,0.75 -0.42187,1.5 l -0.875,2.3125 z m 7.71701,3.23438 0,-6.9375 -2.59375,0 0,-0.9375 6.23437,0 0,0.9375 -2.60937,0 0,6.9375 -1.03125,0 z m 7.42303,0 0,-7.875 1.57813,0 1.85937,5.57812 q 0.25,0.78125 0.375,1.15625 0.14063,-0.42187 0.42188,-1.25 l 1.875,-5.48437 1.40625,0 0,7.875 -1,0 0,-6.59375 -2.29688,6.59375 -0.9375,0 -2.26562,-6.70313 0,6.70313 -1.01563,0 z m 12.51737,-0.70313 q -0.54688,0.45313 -1.04688,0.64063 -0.48437,0.1875 -1.0625,0.1875 -0.9375,0 -1.45312,-0.45313 -0.5,-0.46875 -0.5,-1.17187 0,-0.42188 0.1875,-0.76563 0.20312,-0.34375 0.5,-0.54687 0.3125,-0.21875 0.70312,-0.32813 0.28125,-0.0781 0.85938,-0.14062 1.17187,-0.14063 1.71875,-0.34375 0.0156,-0.1875 0.0156,-0.25 0,-0.59375 -0.28125,-0.82813 -0.35937,-0.32812 -1.09375,-0.32812 -0.6875,0 -1.01562,0.23437 -0.3125,0.23438 -0.46875,0.84375 l -0.95313,-0.125 q 0.125,-0.60937 0.42188,-0.98437 0.29687,-0.375 0.85937,-0.5625 0.5625,-0.20313 1.29688,-0.20313 0.73437,0 1.1875,0.17188 0.45312,0.17187 0.65625,0.4375 0.21875,0.25 0.3125,0.64062 0.0469,0.25 0.0469,0.90625 l 0,1.28125 q 0,1.34375 0.0625,1.70313 0.0625,0.35937 0.25,0.6875 l -1.01562,0 q -0.15625,-0.29688 -0.1875,-0.70313 z m -0.0937,-2.15625 q -0.51563,0.21875 -1.57813,0.35938 -0.59375,0.0937 -0.84375,0.20312 -0.23437,0.0937 -0.375,0.3125 -0.14062,0.20313 -0.14062,0.45313 0,0.39062 0.29687,0.65625 0.29688,0.25 0.85938,0.25 0.5625,0 0.98437,-0.25 0.4375,-0.25 0.65625,-0.67188 0.14063,-0.32812 0.14063,-0.96875 l 0,-0.34375 z m 2.30148,-3.90625 0,-1.10937 0.96875,0 0,1.10937 -0.96875,0 z m 0,6.76563 0,-5.70313 0.96875,0 0,5.70313 -0.96875,0 z m 2.33624,0 0,-7.875 0.96875,0 0,7.875 -0.96875,0 z m 3.27371,0 -0.89062,0 0,-7.875 0.96875,0 0,2.8125 q 0.60937,-0.76563 1.5625,-0.76563 0.53125,0 1,0.21875 0.46875,0.20313 0.76562,0.59375 0.3125,0.375 0.48438,0.92188 0.17187,0.53125 0.17187,1.15625 0,1.46875 -0.73437,2.26562 -0.71875,0.79688 -1.73438,0.79688 -1.01562,0 -1.59375,-0.84375 l 0,0.71875 z m 0,-2.89063 q 0,1.01563 0.28125,1.48438 0.45313,0.73437 1.23438,0.73437 0.625,0 1.07812,-0.54687 0.46875,-0.54688 0.46875,-1.64063 0,-1.10937 -0.4375,-1.64062 -0.4375,-0.53125 -1.07812,-0.53125 -0.625,0 -1.09375,0.54687 -0.45313,0.54688 -0.45313,1.59375 z m 4.67652,0.0312 q 0,-1.57812 0.89062,-2.34375 0.73438,-0.625 1.79688,-0.625 1.17187,0 1.90625,0.76563 0.75,0.76562 0.75,2.125 0,1.10937 -0.32813,1.75 -0.32812,0.625 -0.96875,0.96875 -0.625,0.34375 -1.35937,0.34375 -1.20313,0 -1.95313,-0.76563 -0.73437,-0.76562 -0.73437,-2.21875 z m 1,0 q 0,1.10938 0.46875,1.65625 0.48437,0.53125 1.21875,0.53125 0.71875,0 1.1875,-0.54687 0.48437,-0.54688 0.48437,-1.67188 0,-1.04687 -0.48437,-1.59375 -0.48438,-0.54687 -1.1875,-0.54687 -0.73438,0 -1.21875,0.54687 -0.46875,0.53125 -0.46875,1.625 z m 4.64523,2.85938 2.09375,-2.96875 -1.9375,-2.73438 1.20313,0 0.89062,1.34375 q 0.23438,0.375 0.39063,0.625 0.23437,-0.34375 0.4375,-0.625 l 0.95312,-1.34375 1.15625,0 -1.96875,2.6875 2.125,3.01563 -1.1875,0 -1.17187,-1.76563 -0.3125,-0.48437 -1.5,2.25 -1.17188,0 z" />
  <path
     style="fill:#000000;fill-opacity:0;fill-rule:evenodd"
     inkscape:connector-curvature="0"
     id="path53"
     d="m 281.95013,130.93039 c 10.56696,0 15.8504,0.0158 21.13385,0.0315 5.28351,0.0158 10.56696,0.0315 21.13385,0.0315" />
  <path
     style="stroke:#000000;stroke-width:1;stroke-linecap:butt;stroke-linejoin:round"
     inkscape:connector-curvature="0"
     id="path55"
     d="m 285.3772,130.93171 3.59003,10e-4 c 2.06384,0.002 3.88006,0.004 5.53112,0.007 3.30219,0.006 5.94391,0.0138 8.58564,0.0217 5.28351,0.0157 10.56695,0.0315 21.13385,0.0315" />
  <path
     style="fill:#000000;fill-rule:evenodd;stroke:#000000;stroke-width:1;stroke-linecap:butt"
     inkscape:connector-curvature="0"
     id="path57"
     d="m 285.3772,130.93171 1.12506,-1.12415 -3.09021,1.12339 3.08936,1.12579 z" />
  <path
     style="fill:#000000;fill-opacity:0;fill-rule:evenodd"
     inkscape:connector-curvature="0"
     id="path59"
     d="m 324.21783,168.06424 c -10.5669,0 -15.85034,-3.24408 -21.13385,-6.48819 -5.28345,-3.24408 -10.5669,-6.48819 -21.13385,-6.48819" />
  <path
     style="stroke:#000000;stroke-width:1;stroke-linecap:butt;stroke-linejoin:round"
     inkscape:connector-curvature="0"
     id="path61"
     d="m 320.79297,167.94137 -0.30035,-0.0229 c -1.16608,-0.0951 -2.25989,-0.23443 -3.29187,-0.41186 -2.06385,-0.35483 -3.88001,-0.8617 -5.53113,-1.46997 -3.30213,-1.21653 -5.94391,-2.8386 -8.58563,-4.46064 -5.28345,-3.24408 -10.5669,-6.48819 -21.13385,-6.48819" />
  <path
     style="fill:#000000;fill-rule:evenodd;stroke:#000000;stroke-width:1;stroke-linecap:butt"
     inkscape:connector-curvature="0"
     id="path63"
     d="m 320.79297,167.94137 -1.16418,1.08356 3.12811,-1.01309 -3.04749,-1.23465 z" />
  <path
     style="fill:#000000;fill-opacity:0;fill-rule:evenodd"
     inkscape:connector-curvature="0"
     id="path65"
     d="m 324.21783,168.06424 c -10.5669,0 -15.85034,2.40945 -21.13385,4.81891 -5.28345,2.40942 -10.5669,4.81888 -21.13385,4.81888" />
  <path
     style="stroke:#000000;stroke-width:1;stroke-linecap:butt;stroke-linejoin:round"
     inkscape:connector-curvature="0"
     id="path67"
     d="m 320.792,168.15674 -0.29938,0.0157 c -1.16607,0.0706 -2.25989,0.17413 -3.29187,0.3059 -2.06384,0.26352 -3.88,0.64002 -5.53113,1.0918 -3.30212,0.90354 -5.9439,2.10825 -8.58563,3.31299 -5.28344,2.40942 -10.56689,4.81888 -21.13385,4.81888" />
  <path
     style="fill:#000000;fill-rule:evenodd;stroke:#000000;stroke-width:1;stroke-linecap:butt"
     inkscape:connector-curvature="0"
     id="path69"
     d="m 320.792,168.15674 -1.09381,1.15454 3.05829,-1.20758 -3.11896,-1.04077 z" />
  <path
     style="fill:#c9daf8;fill-rule:evenodd"
     inkscape:connector-curvature="0"
     id="path71"
     d="m 94.42255,141.6233 117.73227,0 0,26.92914 -117.73227,0 z" />
  <path
     style="stroke:#000000;stroke-width:1;stroke-linecap:butt;stroke-linejoin:round"
     inkscape:connector-curvature="0"
     id="path73"
     d="m 94.42255,141.6233 117.73227,0 0,26.92914 -117.73227,0 z" />
  <path
     style="fill:#000000;fill-rule:nonzero"
     inkscape:connector-curvature="0"
     id="path75"
     d="m 112.96463,156.06223 1.04687,0.26562 q -0.32812,1.28125 -1.1875,1.96875 -0.84375,0.67188 -2.07812,0.67188 -1.28125,0 -2.07813,-0.51563 -0.79687,-0.53125 -1.21875,-1.51562 -0.40625,-0.98438 -0.40625,-2.10938 0,-1.21875 0.46875,-2.14062 0.46875,-0.92188 1.32813,-1.39063 0.875,-0.48437 1.92187,-0.48437 1.1875,0 1.98438,0.60937 0.8125,0.59375 1.125,1.6875 l -1.03125,0.25 q -0.26563,-0.85937 -0.79688,-1.25 -0.51562,-0.39062 -1.29687,-0.39062 -0.92188,0 -1.53125,0.4375 -0.60938,0.42187 -0.85938,1.15625 -0.23437,0.73437 -0.23437,1.51562 0,1 0.28125,1.75 0.29687,0.75 0.90625,1.125 0.625,0.375 1.34375,0.375 0.875,0 1.48437,-0.5 0.60938,-0.51562 0.82813,-1.51562 z m 1.58624,-0.0937 q 0,-1.57813 0.89063,-2.34375 0.73437,-0.625 1.79687,-0.625 1.17188,0 1.90625,0.76562 0.75,0.76563 0.75,2.125 0,1.10938 -0.32812,1.75 -0.32813,0.625 -0.96875,0.96875 -0.625,0.34375 -1.35938,0.34375 -1.20312,0 -1.95312,-0.76562 -0.73438,-0.76563 -0.73438,-2.21875 z m 1,0 q 0,1.10937 0.46875,1.65625 0.48438,0.53125 1.21875,0.53125 0.71875,0 1.1875,-0.54688 0.48438,-0.54687 0.48438,-1.67187 0,-1.04688 -0.48438,-1.59375 -0.48437,-0.54688 -1.1875,-0.54688 -0.73437,0 -1.21875,0.54688 -0.46875,0.53125 -0.46875,1.625 z m 5.28586,2.85937 0,-5.70312 0.875,0 0,0.8125 q 0.625,-0.9375 1.8125,-0.9375 0.51563,0 0.95313,0.1875 0.4375,0.17187 0.64062,0.48437 0.21875,0.29688 0.3125,0.70313 0.0469,0.28125 0.0469,0.95312 l 0,3.5 -0.96875,0 0,-3.46875 q 0,-0.59375 -0.10938,-0.875 -0.10937,-0.29687 -0.40625,-0.46875 -0.28125,-0.1875 -0.67187,-0.1875 -0.60938,0 -1.0625,0.39063 -0.45313,0.39062 -0.45313,1.5 l 0,3.10937 -0.96875,0 z m 8.05151,-0.85937 0.125,0.84375 q -0.40625,0.0937 -0.71875,0.0937 -0.53125,0 -0.82812,-0.17188 -0.28125,-0.17187 -0.40625,-0.4375 -0.10938,-0.26562 -0.10938,-1.14062 l 0,-3.28125 -0.71875,0 0,-0.75 0.71875,0 0,-1.40625 0.95313,-0.59375 0,2 0.98437,0 0,0.75 -0.98437,0 0,3.34375 q 0,0.40625 0.0469,0.53125 0.0625,0.10937 0.17188,0.1875 0.125,0.0625 0.32812,0.0625 0.17188,0 0.4375,-0.0312 z m 0.83564,0.85937 0,-5.70312 0.85937,0 0,0.85937 q 0.34375,-0.60937 0.625,-0.79687 0.28125,-0.1875 0.60938,-0.1875 0.5,0 1,0.3125 l -0.32813,0.89062 q -0.35937,-0.20312 -0.71875,-0.20312 -0.3125,0 -0.5625,0.1875 -0.25,0.1875 -0.35937,0.53125 -0.15625,0.51562 -0.15625,1.125 l 0,2.98437 -0.96875,0 z m 3.18924,-2.85937 q 0,-1.57813 0.89062,-2.34375 0.73438,-0.625 1.79688,-0.625 1.17187,0 1.90625,0.76562 0.75,0.76563 0.75,2.125 0,1.10938 -0.32813,1.75 -0.32812,0.625 -0.96875,0.96875 -0.625,0.34375 -1.35937,0.34375 -1.20313,0 -1.95313,-0.76562 -0.73437,-0.76563 -0.73437,-2.21875 z m 1,0 q 0,1.10937 0.46875,1.65625 0.48437,0.53125 1.21875,0.53125 0.71875,0 1.1875,-0.54688 0.48437,-0.54687 0.48437,-1.67187 0,-1.04688 -0.48437,-1.59375 -0.48438,-0.54688 -1.1875,-0.54688 -0.73438,0 -1.21875,0.54688 -0.46875,0.53125 -0.46875,1.625 z m 5.27026,2.85937 0,-7.875 0.96875,0 0,7.875 -0.96875,0 z m 9.04688,0 0,-0.71875 q -0.53125,0.84375 -1.59375,0.84375 -0.67188,0 -1.25,-0.375 -0.57813,-0.375 -0.89063,-1.04687 -0.3125,-0.67188 -0.3125,-1.54688 0,-0.85937 0.28125,-1.54687 0.29688,-0.70313 0.85938,-1.0625 0.5625,-0.375 1.26562,-0.375 0.51563,0 0.92188,0.21875 0.40625,0.21875 0.65625,0.5625 l 0,-2.82813 0.96875,0 0,7.875 -0.90625,0 z m -3.04688,-2.84375 q 0,1.09375 0.45313,1.64063 0.46875,0.53125 1.09375,0.53125 0.64062,0 1.07812,-0.51563 0.4375,-0.51562 0.4375,-1.57812 0,-1.17188 -0.45312,-1.71875 -0.4375,-0.54688 -1.10938,-0.54688 -0.64062,0 -1.07812,0.53125 -0.42188,0.51563 -0.42188,1.65625 z m 9.17648,1 1,0.125 q -0.23437,0.875 -0.875,1.35938 -0.64062,0.48437 -1.625,0.48437 -1.25,0 -1.98437,-0.76562 -0.73438,-0.76563 -0.73438,-2.15625 0,-1.45313 0.73438,-2.23438 0.75,-0.79687 1.92187,-0.79687 1.15625,0 1.875,0.78125 0.71875,0.76562 0.71875,2.1875 0,0.0781 0,0.25 l -4.25,0 q 0.0469,0.9375 0.51563,1.4375 0.48437,0.5 1.20312,0.5 0.53125,0 0.90625,-0.26563 0.375,-0.28125 0.59375,-0.90625 z m -3.17187,-1.5625 3.1875,0 q -0.0625,-0.71875 -0.35938,-1.07812 -0.46875,-0.54688 -1.20312,-0.54688 -0.67188,0 -1.125,0.45313 -0.45313,0.4375 -0.5,1.17187 z m 11.88714,1.3125 0.9375,0.125 q -0.14062,0.98438 -0.79687,1.54688 -0.64063,0.54687 -1.5625,0.54687 -1.17188,0 -1.89063,-0.76562 -0.70312,-0.76563 -0.70312,-2.1875 0,-0.92188 0.29687,-1.60938 0.3125,-0.70312 0.9375,-1.04687 0.625,-0.34375 1.35938,-0.34375 0.92187,0 1.51562,0.46875 0.59375,0.46875 0.76563,1.32812 l -0.95313,0.14063 q -0.125,-0.5625 -0.46875,-0.84375 -0.34375,-0.29688 -0.82812,-0.29688 -0.71875,0 -1.1875,0.53125 -0.45313,0.51563 -0.45313,1.64063 0,1.15625 0.4375,1.67187 0.4375,0.51563 1.15625,0.51563 0.5625,0 0.9375,-0.34375 0.39063,-0.34375 0.5,-1.07813 z m 1.23438,-0.76562 q 0,-1.57813 0.89062,-2.34375 0.73438,-0.625 1.79688,-0.625 1.17187,0 1.90625,0.76562 0.75,0.76563 0.75,2.125 0,1.10938 -0.32813,1.75 -0.32812,0.625 -0.96875,0.96875 -0.625,0.34375 -1.35937,0.34375 -1.20313,0 -1.95313,-0.76562 -0.73437,-0.76563 -0.73437,-2.21875 z m 1,0 q 0,1.10937 0.46875,1.65625 0.48437,0.53125 1.21875,0.53125 0.71875,0 1.1875,-0.54688 0.48437,-0.54687 0.48437,-1.67187 0,-1.04688 -0.48437,-1.59375 -0.48438,-0.54688 -1.1875,-0.54688 -0.73438,0 -1.21875,0.54688 -0.46875,0.53125 -0.46875,1.625 z m 5.28589,2.85937 0,-5.70312 0.85937,0 0,0.85937 q 0.34375,-0.60937 0.625,-0.79687 0.28125,-0.1875 0.60938,-0.1875 0.5,0 1,0.3125 l -0.32813,0.89062 q -0.35937,-0.20312 -0.71875,-0.20312 -0.3125,0 -0.5625,0.1875 -0.25,0.1875 -0.35937,0.53125 -0.15625,0.51562 -0.15625,1.125 l 0,2.98437 -0.96875,0 z m 3.54861,0 0,-5.70312 0.85938,0 0,0.85937 q 0.34375,-0.60937 0.625,-0.79687 0.28125,-0.1875 0.60937,-0.1875 0.5,0 1,0.3125 l -0.32812,0.89062 q -0.35938,-0.20312 -0.71875,-0.20312 -0.3125,0 -0.5625,0.1875 -0.25,0.1875 -0.35938,0.53125 -0.15625,0.51562 -0.15625,1.125 l 0,2.98437 -0.96875,0 z m 3.56424,-6.76562 0,-1.10938 0.96875,0 0,1.10938 -0.96875,0 z m 0,6.76562 0,-5.70312 0.96875,0 0,5.70312 -0.96875,0 z m 6.25809,-1.84375 1,0.125 q -0.23438,0.875 -0.875,1.35938 -0.64063,0.48437 -1.625,0.48437 -1.25,0 -1.98438,-0.76562 -0.73437,-0.76563 -0.73437,-2.15625 0,-1.45313 0.73437,-2.23438 0.75,-0.79687 1.92188,-0.79687 1.15625,0 1.875,0.78125 0.71875,0.76562 0.71875,2.1875 0,0.0781 0,0.25 l -4.25,0 q 0.0469,0.9375 0.51562,1.4375 0.48438,0.5 1.20313,0.5 0.53125,0 0.90625,-0.26563 0.375,-0.28125 0.59375,-0.90625 z m -3.17188,-1.5625 3.1875,0 q -0.0625,-0.71875 -0.35937,-1.07812 -0.46875,-0.54688 -1.20313,-0.54688 -0.67187,0 -1.125,0.45313 -0.45312,0.4375 -0.5,1.17187 z m 5.19214,3.40625 0,-5.70312 0.875,0 0,0.8125 q 0.625,-0.9375 1.8125,-0.9375 0.51563,0 0.95313,0.1875 0.4375,0.17187 0.64062,0.48437 0.21875,0.29688 0.3125,0.70313 0.0469,0.28125 0.0469,0.95312 l 0,3.5 -0.96875,0 0,-3.46875 q 0,-0.59375 -0.10938,-0.875 -0.10937,-0.29687 -0.40625,-0.46875 -0.28125,-0.1875 -0.67187,-0.1875 -0.60938,0 -1.0625,0.39063 -0.45313,0.39062 -0.45313,1.5 l 0,3.10937 -0.96875,0 z m 8.05149,-0.85937 0.125,0.84375 q -0.40625,0.0937 -0.71875,0.0937 -0.53125,0 -0.82813,-0.17188 -0.28125,-0.17187 -0.40625,-0.4375 -0.10937,-0.26562 -0.10937,-1.14062 l 0,-3.28125 -0.71875,0 0,-0.75 0.71875,0 0,-1.40625 0.95312,-0.59375 0,2 0.98438,0 0,0.75 -0.98438,0 0,3.34375 q 0,0.40625 0.0469,0.53125 0.0625,0.10937 0.17187,0.1875 0.125,0.0625 0.32813,0.0625 0.17187,0 0.4375,-0.0312 z m 4.74191,-0.98438 1,0.125 q -0.23438,0.875 -0.875,1.35938 -0.64063,0.48437 -1.625,0.48437 -1.25,0 -1.98438,-0.76562 -0.73437,-0.76563 -0.73437,-2.15625 0,-1.45313 0.73437,-2.23438 0.75,-0.79687 1.92188,-0.79687 1.15625,0 1.875,0.78125 0.71875,0.76562 0.71875,2.1875 0,0.0781 0,0.25 l -4.25,0 q 0.0469,0.9375 0.51562,1.4375 0.48438,0.5 1.20313,0.5 0.53125,0 0.90625,-0.26563 0.375,-0.28125 0.59375,-0.90625 z m -3.17188,-1.5625 3.1875,0 q -0.0625,-0.71875 -0.35937,-1.07812 -0.46875,-0.54688 -1.20313,-0.54688 -0.67187,0 -1.125,0.45313 -0.45312,0.4375 -0.5,1.17187 z" />
  <path
     style="fill:#ffd966;fill-rule:evenodd"
     inkscape:connector-curvature="0"
     id="path77"
     d="m 324.5906,242.50519 128.75589,0 0,24.15747 -128.75589,0 z" />
  <path
     style="stroke:#000000;stroke-width:1;stroke-linecap:butt;stroke-linejoin:round"
     inkscape:connector-curvature="0"
     id="path79"
     d="m 324.5906,242.50519 128.75589,0 0,24.15747 -128.75589,0 z" />
  <path
     style="fill:#000000;fill-rule:nonzero"
     inkscape:connector-curvature="0"
     id="path81"
     d="m 378.2595,254.63892 -2.46875,0 0,2.01563 2.875,0 0,0.60937 -3.625,0 0,-5.6875 3.57812,0 0,0.60938 -2.82812,0 0,1.82812 2.46875,0 0,0.625 z m 1.90625,-1.60937 0.0156,0.53125 q 0.48438,-0.60938 1.26563,-0.60938 1.34375,0 1.35937,1.51563 l 0,2.79687 -0.71875,0 0,-2.79687 q -0.0156,-0.45313 -0.21875,-0.67188 -0.20312,-0.21875 -0.64062,-0.21875 -0.34375,0 -0.60938,0.1875 -0.26562,0.1875 -0.42187,0.48438 l 0,3.01562 -0.71875,0 0,-4.23437 0.6875,0 z m 5.42974,3.71875 q 0.375,0 0.6562,-0.23438 0.2969,-0.23437 0.3281,-0.57812 l 0.6875,0 q -0.016,0.35937 -0.25,0.6875 -0.2343,0.32812 -0.625,0.53125 -0.375,0.1875 -0.7968,0.1875 -0.875,0 -1.3907,-0.57813 -0.5,-0.57812 -0.5,-1.57812 l 0,-0.125 q 0,-0.60938 0.2188,-1.09375 0.2344,-0.48438 0.6562,-0.75 0.4219,-0.26563 1,-0.26563 0.7188,0 1.1875,0.4375 0.4688,0.42188 0.5,1.09375 l -0.6875,0 q -0.031,-0.40625 -0.3125,-0.67187 -0.2656,-0.26563 -0.6875,-0.26563 -0.5468,0 -0.8593,0.40625 -0.2969,0.39063 -0.2969,1.14063 l 0,0.14062 q 0,0.73438 0.2969,1.125 0.3125,0.39063 0.875,0.39063 z m 2.2968,-1.64063 q 0,-0.625 0.2344,-1.10937 0.25,-0.5 0.6875,-0.76563 0.4375,-0.28125 1,-0.28125 0.8594,0 1.3906,0.60938 0.5313,0.59375 0.5313,1.57812 l 0,0.0625 q 0,0.60938 -0.2344,1.10938 -0.2344,0.48437 -0.6719,0.76562 -0.4375,0.26563 -1.0156,0.26563 -0.8594,0 -1.3906,-0.59375 -0.5313,-0.60938 -0.5313,-1.59375 l 0,-0.0469 z m 0.7188,0.0937 q 0,0.70313 0.3281,1.125 0.3281,0.42188 0.875,0.42188 0.5469,0 0.875,-0.42188 0.3281,-0.4375 0.3281,-1.21875 0,-0.6875 -0.3281,-1.125 -0.3281,-0.4375 -0.875,-0.4375 -0.5469,0 -0.875,0.4375 -0.3281,0.42188 -0.3281,1.21875 z m 3.8594,-0.0937 q 0,-0.96875 0.4531,-1.5625 0.4687,-0.59375 1.2187,-0.59375 0.7344,0 1.1719,0.51563 l 0,-2.20313 0.7188,0 0,6 -0.6563,0 -0.047,-0.45312 q -0.4219,0.53125 -1.2031,0.53125 -0.7344,0 -1.2031,-0.59375 -0.4532,-0.60938 -0.4532,-1.57813 l 0,-0.0625 z m 0.7187,0.0937 q 0,0.71875 0.2969,1.125 0.2969,0.40625 0.8281,0.40625 0.6875,0 1,-0.625 l 0,-1.9375 q -0.3281,-0.59375 -1,-0.59375 -0.5312,0 -0.8281,0.40625 -0.2969,0.40625 -0.2969,1.21875 z m 5.7148,2.14063 q -0.8593,0 -1.4062,-0.5625 -0.5313,-0.5625 -0.5313,-1.51563 l 0,-0.125 q 0,-0.64062 0.2344,-1.125 0.25,-0.5 0.6719,-0.78125 0.4375,-0.28125 0.9531,-0.28125 0.8125,0 1.2656,0.54688 0.4688,0.54687 0.4688,1.5625 l 0,0.29687 -2.8594,0 q 0.016,0.625 0.3594,1.01563 0.3437,0.375 0.8906,0.375 0.375,0 0.6406,-0.15625 0.2657,-0.15625 0.4688,-0.40625 l 0.4375,0.34375 q -0.5313,0.8125 -1.5938,0.8125 z m -0.078,-3.79688 q -0.4375,0 -0.7343,0.32813 -0.2969,0.3125 -0.375,0.89062 l 2.125,0 0,-0.0625 q -0.031,-0.54687 -0.2969,-0.84375 -0.2656,-0.3125 -0.7188,-0.3125 z m 4.6133,0.14063 q -0.1719,-0.0312 -0.3594,-0.0312 -0.7031,0 -0.9687,0.60937 l 0,3 -0.7188,0 0,-4.23437 0.7032,0 0.016,0.5 q 0.3594,-0.57813 1,-0.57813 0.2187,0 0.3281,0.0625 l 0,0.67188 z" />
  <path
     style="fill:#c9daf8;fill-rule:evenodd"
     inkscape:connector-curvature="0"
     id="path83"
     d="m 94.42258,239.6233 117.73227,0 0,29.92127 -117.73227,0 z" />
  <path
     style="stroke:#000000;stroke-width:1;stroke-linecap:butt;stroke-linejoin:round"
     inkscape:connector-curvature="0"
     id="path85"
     d="m 94.42258,239.6233 117.73227,0 0,29.92127 -117.73227,0 z" />
  <path
     style="fill:#000000;fill-rule:nonzero"
     inkscape:connector-curvature="0"
     id="path87"
     d="m 110.0014,249.05829 1.04687,0.26562 q -0.32812,1.28125 -1.1875,1.96875 -0.84375,0.67188 -2.07812,0.67188 -1.28125,0 -2.07813,-0.51563 -0.79687,-0.53125 -1.21875,-1.51562 -0.40625,-0.98438 -0.40625,-2.10938 0,-1.21875 0.46875,-2.14062 0.46875,-0.92188 1.32813,-1.39063 0.875,-0.48437 1.92187,-0.48437 1.1875,0 1.98438,0.60937 0.8125,0.59375 1.125,1.6875 l -1.03125,0.25 q -0.26563,-0.85937 -0.79688,-1.25 -0.51562,-0.39062 -1.29687,-0.39062 -0.92188,0 -1.53125,0.4375 -0.60938,0.42187 -0.85938,1.15625 -0.23437,0.73437 -0.23437,1.51562 0,1 0.28125,1.75 0.29687,0.75 0.90625,1.125 0.625,0.375 1.34375,0.375 0.875,0 1.48437,-0.5 0.60938,-0.51562 0.82813,-1.51562 z m 1.58624,-0.0937 q 0,-1.57813 0.89063,-2.34375 0.73437,-0.625 1.79687,-0.625 1.17188,0 1.90625,0.76562 0.75,0.76563 0.75,2.125 0,1.10938 -0.32812,1.75 -0.32813,0.625 -0.96875,0.96875 -0.625,0.34375 -1.35938,0.34375 -1.20312,0 -1.95312,-0.76562 -0.73438,-0.76563 -0.73438,-2.21875 z m 1,0 q 0,1.10937 0.46875,1.65625 0.48438,0.53125 1.21875,0.53125 0.71875,0 1.1875,-0.54688 0.48438,-0.54687 0.48438,-1.67187 0,-1.04688 -0.48438,-1.59375 -0.48437,-0.54688 -1.1875,-0.54688 -0.73437,0 -1.21875,0.54688 -0.46875,0.53125 -0.46875,1.625 z m 5.28586,2.85937 0,-5.70312 0.875,0 0,0.8125 q 0.625,-0.9375 1.8125,-0.9375 0.51563,0 0.95313,0.1875 0.4375,0.17187 0.64062,0.48437 0.21875,0.29688 0.3125,0.70313 0.0469,0.28125 0.0469,0.95312 l 0,3.5 -0.96875,0 0,-3.46875 q 0,-0.59375 -0.10938,-0.875 -0.10937,-0.29687 -0.40625,-0.46875 -0.28125,-0.1875 -0.67187,-0.1875 -0.60938,0 -1.0625,0.39063 -0.45313,0.39062 -0.45313,1.5 l 0,3.10937 -0.96875,0 z m 8.05151,-0.85937 0.125,0.84375 q -0.40625,0.0937 -0.71875,0.0937 -0.53125,0 -0.82812,-0.17188 -0.28125,-0.17187 -0.40625,-0.4375 -0.10938,-0.26562 -0.10938,-1.14062 l 0,-3.28125 -0.71875,0 0,-0.75 0.71875,0 0,-1.40625 0.95313,-0.59375 0,2 0.98437,0 0,0.75 -0.98437,0 0,3.34375 q 0,0.40625 0.0469,0.53125 0.0625,0.10937 0.17188,0.1875 0.125,0.0625 0.32812,0.0625 0.17188,0 0.4375,-0.0312 z m 0.83564,0.85937 0,-5.70312 0.85937,0 0,0.85937 q 0.34375,-0.60937 0.625,-0.79687 0.28125,-0.1875 0.60938,-0.1875 0.5,0 1,0.3125 l -0.32813,0.89062 q -0.35937,-0.20312 -0.71875,-0.20312 -0.3125,0 -0.5625,0.1875 -0.25,0.1875 -0.35937,0.53125 -0.15625,0.51562 -0.15625,1.125 l 0,2.98437 -0.96875,0 z m 3.18924,-2.85937 q 0,-1.57813 0.89062,-2.34375 0.73438,-0.625 1.79688,-0.625 1.17187,0 1.90625,0.76562 0.75,0.76563 0.75,2.125 0,1.10938 -0.32813,1.75 -0.32812,0.625 -0.96875,0.96875 -0.625,0.34375 -1.35937,0.34375 -1.20313,0 -1.95313,-0.76562 -0.73437,-0.76563 -0.73437,-2.21875 z m 1,0 q 0,1.10937 0.46875,1.65625 0.48437,0.53125 1.21875,0.53125 0.71875,0 1.1875,-0.54688 0.48437,-0.54687 0.48437,-1.67187 0,-1.04688 -0.48437,-1.59375 -0.48438,-0.54688 -1.1875,-0.54688 -0.73438,0 -1.21875,0.54688 -0.46875,0.53125 -0.46875,1.625 z m 5.27026,2.85937 0,-7.875 0.96875,0 0,7.875 -0.96875,0 z m 9.04688,0 0,-0.71875 q -0.53125,0.84375 -1.59375,0.84375 -0.67188,0 -1.25,-0.375 -0.57813,-0.375 -0.89063,-1.04687 -0.3125,-0.67188 -0.3125,-1.54688 0,-0.85937 0.28125,-1.54687 0.29688,-0.70313 0.85938,-1.0625 0.5625,-0.375 1.26562,-0.375 0.51563,0 0.92188,0.21875 0.40625,0.21875 0.65625,0.5625 l 0,-2.82813 0.96875,0 0,7.875 -0.90625,0 z m -3.04688,-2.84375 q 0,1.09375 0.45313,1.64063 0.46875,0.53125 1.09375,0.53125 0.64062,0 1.07812,-0.51563 0.4375,-0.51562 0.4375,-1.57812 0,-1.17188 -0.45312,-1.71875 -0.4375,-0.54688 -1.10938,-0.54688 -0.64062,0 -1.07812,0.53125 -0.42188,0.51563 -0.42188,1.65625 z m 9.17648,1 1,0.125 q -0.23437,0.875 -0.875,1.35938 -0.64062,0.48437 -1.625,0.48437 -1.25,0 -1.98437,-0.76562 -0.73438,-0.76563 -0.73438,-2.15625 0,-1.45313 0.73438,-2.23438 0.75,-0.79687 1.92187,-0.79687 1.15625,0 1.875,0.78125 0.71875,0.76562 0.71875,2.1875 0,0.0781 0,0.25 l -4.25,0 q 0.0469,0.9375 0.51563,1.4375 0.48437,0.5 1.20312,0.5 0.53125,0 0.90625,-0.26563 0.375,-0.28125 0.59375,-0.90625 z m -3.17187,-1.5625 3.1875,0 q -0.0625,-0.71875 -0.35938,-1.07812 -0.46875,-0.54688 -1.20312,-0.54688 -0.67188,0 -1.125,0.45313 -0.45313,0.4375 -0.5,1.17187 z m 8.15277,5.59375 0,-7.89062 0.89062,0 0,0.73437 q 0.3125,-0.42187 0.70313,-0.64062 0.39062,-0.21875 0.95312,-0.21875 0.71875,0 1.28125,0.375 0.5625,0.375 0.84375,1.0625 0.28125,0.67187 0.28125,1.5 0,0.875 -0.3125,1.57812 -0.3125,0.6875 -0.92187,1.0625 -0.59375,0.375 -1.25,0.375 -0.48438,0 -0.875,-0.20312 -0.375,-0.20313 -0.625,-0.51563 l 0,2.78125 -0.96875,0 z m 0.875,-5 q 0,1.09375 0.45312,1.625 0.45313,0.51563 1.07813,0.51563 0.64062,0 1.09375,-0.53125 0.46875,-0.54688 0.46875,-1.70313 0,-1.07812 -0.45313,-1.625 -0.4375,-0.54687 -1.0625,-0.54687 -0.625,0 -1.10937,0.57812 -0.46875,0.57813 -0.46875,1.6875 z m 4.69214,-0.0469 q 0,-1.57813 0.89062,-2.34375 0.73438,-0.625 1.79688,-0.625 1.17187,0 1.90625,0.76562 0.75,0.76563 0.75,2.125 0,1.10938 -0.32813,1.75 -0.32812,0.625 -0.96875,0.96875 -0.625,0.34375 -1.35937,0.34375 -1.20313,0 -1.95313,-0.76562 -0.73437,-0.76563 -0.73437,-2.21875 z m 1,0 q 0,1.10937 0.46875,1.65625 0.48437,0.53125 1.21875,0.53125 0.71875,0 1.1875,-0.54688 0.48437,-0.54687 0.48437,-1.67187 0,-1.04688 -0.48437,-1.59375 -0.48438,-0.54688 -1.1875,-0.54688 -0.73438,0 -1.21875,0.54688 -0.46875,0.53125 -0.46875,1.625 z m 4.91086,1.15625 0.95312,-0.15625 q 0.0781,0.57812 0.4375,0.89062 0.375,0.29688 1.03125,0.29688 0.67188,0 0.98438,-0.26563 0.32812,-0.26562 0.32812,-0.64062 0,-0.32813 -0.28125,-0.51563 -0.20312,-0.125 -0.98437,-0.32812 -1.0625,-0.26563 -1.48438,-0.45313 -0.40625,-0.20312 -0.625,-0.54687 -0.20312,-0.34375 -0.20312,-0.76563 0,-0.39062 0.17187,-0.70312 0.17188,-0.32813 0.48438,-0.54688 0.21875,-0.17187 0.60937,-0.28125 0.39063,-0.10937 0.82813,-0.10937 0.67187,0 1.17187,0.1875 0.51563,0.1875 0.75,0.53125 0.25,0.32812 0.34375,0.875 l -0.9375,0.125 q -0.0781,-0.4375 -0.39062,-0.67188 -0.29688,-0.25 -0.85938,-0.25 -0.67187,0 -0.95312,0.21875 -0.28125,0.21875 -0.28125,0.51563 0,0.1875 0.10937,0.32812 0.125,0.15625 0.375,0.26563 0.14063,0.0469 0.85938,0.25 1.01562,0.26562 1.42187,0.4375 0.40625,0.17187 0.64063,0.51562 0.23437,0.32813 0.23437,0.82813 0,0.48437 -0.28125,0.90625 -0.28125,0.42187 -0.8125,0.65625 -0.53125,0.23437 -1.20312,0.23437 -1.10938,0 -1.70313,-0.45312 -0.57812,-0.46875 -0.73437,-1.375 z m 5.71875,-5.0625 0,-1.10938 0.96875,0 0,1.10938 -0.96875,0 z m 0,6.76562 0,-5.70312 0.96875,0 0,5.70312 -0.96875,0 z m 6.08624,-2.09375 0.9375,0.125 q -0.14063,0.98438 -0.79688,1.54688 -0.64062,0.54687 -1.5625,0.54687 -1.17187,0 -1.89062,-0.76562 -0.70313,-0.76563 -0.70313,-2.1875 0,-0.92188 0.29688,-1.60938 0.3125,-0.70312 0.9375,-1.04687 0.625,-0.34375 1.35937,-0.34375 0.92188,0 1.51563,0.46875 0.59375,0.46875 0.76562,1.32812 l -0.95312,0.14063 q -0.125,-0.5625 -0.46875,-0.84375 -0.34375,-0.29688 -0.82813,-0.29688 -0.71875,0 -1.1875,0.53125 -0.45312,0.51563 -0.45312,1.64063 0,1.15625 0.4375,1.67187 0.4375,0.51563 1.15625,0.51563 0.5625,0 0.9375,-0.34375 0.39062,-0.34375 0.5,-1.07813 z m 1.60937,-4.67187 0,-1.10938 0.96875,0 0,1.10938 -0.96875,0 z m 0,6.76562 0,-5.70312 0.96875,0 0,5.70312 -0.96875,0 z m 1.99247,-2.85937 q 0,-1.57813 0.89062,-2.34375 0.73438,-0.625 1.79688,-0.625 1.17187,0 1.90625,0.76562 0.75,0.76563 0.75,2.125 0,1.10938 -0.32813,1.75 -0.32812,0.625 -0.96875,0.96875 -0.625,0.34375 -1.35937,0.34375 -1.20313,0 -1.95313,-0.76562 -0.73437,-0.76563 -0.73437,-2.21875 z m 1,0 q 0,1.10937 0.46875,1.65625 0.48437,0.53125 1.21875,0.53125 0.71875,0 1.1875,-0.54688 0.48437,-0.54687 0.48437,-1.67187 0,-1.04688 -0.48437,-1.59375 -0.48438,-0.54688 -1.1875,-0.54688 -0.73438,0 -1.21875,0.54688 -0.46875,0.53125 -0.46875,1.625 z m 0.82812,-3.54688 0.71875,-1.51562 1.26563,0 -1.17188,1.51562 -0.8125,0 z m 4.45776,6.40625 0,-5.70312 0.875,0 0,0.8125 q 0.625,-0.9375 1.8125,-0.9375 0.51563,0 0.95313,0.1875 0.4375,0.17187 0.64062,0.48437 0.21875,0.29688 0.3125,0.70313 0.0469,0.28125 0.0469,0.95312 l 0,3.5 -0.96875,0 0,-3.46875 q 0,-0.59375 -0.10938,-0.875 -0.10937,-0.29687 -0.40625,-0.46875 -0.28125,-0.1875 -0.67187,-0.1875 -0.60938,0 -1.0625,0.39063 -0.45313,0.39062 -0.45313,1.5 l 0,3.10937 -0.96875,0 z m 8.8559,2.20313 -0.10937,-0.90625 q 0.3125,0.0781 0.54687,0.0781 0.32813,0 0.51563,-0.10937 0.20312,-0.10938 0.3125,-0.29688 0.0937,-0.14062 0.29687,-0.71875 0.0312,-0.0781 0.0937,-0.23437 l -2.17187,-5.71875 1.04687,0 1.1875,3.29687 q 0.23438,0.64063 0.40625,1.32813 0.17188,-0.67188 0.40625,-1.29688 l 1.21875,-3.32812 0.96875,0 -2.17187,5.79687 q -0.34375,0.9375 -0.54688,1.29688 -0.25,0.48437 -0.59375,0.70312 -0.32812,0.21875 -0.78125,0.21875 -0.28125,0 -0.625,-0.10937 z" />
  <path
     style="fill:#000000;fill-rule:nonzero"
     inkscape:connector-curvature="0"
     id="path89"
     d="m 133.08935,264.82392 -2.17188,-5.70312 1.01563,0 1.23437,3.42187 q 0.1875,0.54688 0.35938,1.14063 0.125,-0.45313 0.35937,-1.07813 l 1.26563,-3.48437 1,0 -2.15625,5.70312 -0.90625,0 z m 7.64062,-1.84375 1,0.125 q -0.23437,0.875 -0.875,1.35938 -0.64062,0.48437 -1.625,0.48437 -1.25,0 -1.98437,-0.76562 -0.73438,-0.76563 -0.73438,-2.15625 0,-1.45313 0.73438,-2.23438 0.75,-0.79687 1.92187,-0.79687 1.15625,0 1.875,0.78125 0.71875,0.76562 0.71875,2.1875 0,0.0781 0,0.25 l -4.25,0 q 0.0469,0.9375 0.51563,1.4375 0.48437,0.5 1.20312,0.5 0.53125,0 0.90625,-0.26563 0.375,-0.28125 0.59375,-0.90625 z m -3.17187,-1.5625 3.1875,0 q -0.0625,-0.71875 -0.35938,-1.07812 -0.46875,-0.54688 -1.20312,-0.54688 -0.67188,0 -1.125,0.45313 -0.45313,0.4375 -0.5,1.17187 z m 5.17651,3.40625 0,-7.875 0.96875,0 0,7.875 -0.96875,0 z m 2.02372,-2.85937 q 0,-1.57813 0.89062,-2.34375 0.73438,-0.625 1.79688,-0.625 1.17187,0 1.90625,0.76562 0.75,0.76563 0.75,2.125 0,1.10938 -0.32813,1.75 -0.32812,0.625 -0.96875,0.96875 -0.625,0.34375 -1.35937,0.34375 -1.20313,0 -1.95313,-0.76562 -0.73437,-0.76563 -0.73437,-2.21875 z m 1,0 q 0,1.10937 0.46875,1.65625 0.48437,0.53125 1.21875,0.53125 0.71875,0 1.1875,-0.54688 0.48437,-0.54687 0.48437,-1.67187 0,-1.04688 -0.48437,-1.59375 -0.48438,-0.54688 -1.1875,-0.54688 -0.73438,0 -1.21875,0.54688 -0.46875,0.53125 -0.46875,1.625 z m 9.02026,0.76562 0.9375,0.125 q -0.14063,0.98438 -0.79688,1.54688 -0.64062,0.54687 -1.5625,0.54687 -1.17187,0 -1.89062,-0.76562 -0.70313,-0.76563 -0.70313,-2.1875 0,-0.92188 0.29688,-1.60938 0.3125,-0.70312 0.9375,-1.04687 0.625,-0.34375 1.35937,-0.34375 0.92188,0 1.51563,0.46875 0.59375,0.46875 0.76562,1.32812 l -0.95312,0.14063 q -0.125,-0.5625 -0.46875,-0.84375 -0.34375,-0.29688 -0.82813,-0.29688 -0.71875,0 -1.1875,0.53125 -0.45312,0.51563 -0.45312,1.64063 0,1.15625 0.4375,1.67187 0.4375,0.51563 1.15625,0.51563 0.5625,0 0.9375,-0.34375 0.39062,-0.34375 0.5,-1.07813 z m 1.60937,-4.67187 0,-1.10938 0.96875,0 0,1.10938 -0.96875,0 z m 0,6.76562 0,-5.70312 0.96875,0 0,5.70312 -0.96875,0 z m 6.05497,0 0,-0.71875 q -0.53125,0.84375 -1.59375,0.84375 -0.67188,0 -1.25,-0.375 -0.57813,-0.375 -0.89063,-1.04687 -0.3125,-0.67188 -0.3125,-1.54688 0,-0.85937 0.28125,-1.54687 0.29688,-0.70313 0.85938,-1.0625 0.5625,-0.375 1.26562,-0.375 0.51563,0 0.92188,0.21875 0.40625,0.21875 0.65625,0.5625 l 0,-2.82813 0.96875,0 0,7.875 -0.90625,0 z m -3.04688,-2.84375 q 0,1.09375 0.45313,1.64063 0.46875,0.53125 1.09375,0.53125 0.64062,0 1.07812,-0.51563 0.4375,-0.51562 0.4375,-1.57812 0,-1.17188 -0.45312,-1.71875 -0.4375,-0.54688 -1.10938,-0.54688 -0.64062,0 -1.07812,0.53125 -0.42188,0.51563 -0.42188,1.65625 z m 9.00464,2.14063 q -0.54687,0.45312 -1.04687,0.64062 -0.48438,0.1875 -1.0625,0.1875 -0.9375,0 -1.45313,-0.45312 -0.5,-0.46875 -0.5,-1.17188 0,-0.42187 0.1875,-0.76562 0.20313,-0.34375 0.5,-0.54688 0.3125,-0.21875 0.70313,-0.32812 0.28125,-0.0781 0.85937,-0.14063 1.17188,-0.14062 1.71875,-0.34375 0.0156,-0.1875 0.0156,-0.25 0,-0.59375 -0.28125,-0.82812 -0.35938,-0.32813 -1.09375,-0.32813 -0.6875,0 -1.01563,0.23438 -0.3125,0.23437 -0.46875,0.84375 l -0.95312,-0.125 q 0.125,-0.60938 0.42187,-0.98438 0.29688,-0.375 0.85938,-0.5625 0.5625,-0.20312 1.29687,-0.20312 0.73438,0 1.1875,0.17187 0.45313,0.17188 0.65625,0.4375 0.21875,0.25 0.3125,0.64063 0.0469,0.25 0.0469,0.90625 l 0,1.28125 q 0,1.34375 0.0625,1.70312 0.0625,0.35938 0.25,0.6875 l -1.01563,0 q -0.15625,-0.29687 -0.1875,-0.70312 z m -0.0937,-2.15625 q -0.51562,0.21875 -1.57812,0.35937 -0.59375,0.0937 -0.84375,0.20313 -0.23438,0.0937 -0.375,0.3125 -0.14063,0.20312 -0.14063,0.45312 0,0.39063 0.29688,0.65625 0.29687,0.25 0.85937,0.25 0.5625,0 0.98438,-0.25 0.4375,-0.25 0.65625,-0.67187 0.14062,-0.32813 0.14062,-0.96875 l 0,-0.34375 z m 5.98898,2.85937 0,-0.71875 q -0.53125,0.84375 -1.59375,0.84375 -0.67187,0 -1.25,-0.375 -0.57812,-0.375 -0.89062,-1.04687 -0.3125,-0.67188 -0.3125,-1.54688 0,-0.85937 0.28125,-1.54687 0.29687,-0.70313 0.85937,-1.0625 0.5625,-0.375 1.26563,-0.375 0.51562,0 0.92187,0.21875 0.40625,0.21875 0.65625,0.5625 l 0,-2.82813 0.96875,0 0,7.875 -0.90625,0 z m -3.04687,-2.84375 q 0,1.09375 0.45312,1.64063 0.46875,0.53125 1.09375,0.53125 0.64063,0 1.07813,-0.51563 0.4375,-0.51562 0.4375,-1.57812 0,-1.17188 -0.45313,-1.71875 -0.4375,-0.54688 -1.10937,-0.54688 -0.64063,0 -1.07813,0.53125 -0.42187,0.51563 -0.42187,1.65625 z" />
  <path
     style="fill:#cfe2f3;fill-rule:evenodd"
     inkscape:connector-curvature="0"
     id="path91"
     d="m 94.42258,5.4933806 117.7323,0 0,26.9291204 -117.7323,0 z" />
  <path
     style="stroke:#000000;stroke-width:1;stroke-linecap:butt;stroke-linejoin:round"
     inkscape:connector-curvature="0"
     id="path93"
     d="m 94.42258,5.4933806 117.7323,0 0,26.9291204 -117.7323,0 z" />
  <path
     style="fill:#000000;fill-rule:nonzero"
     inkscape:connector-curvature="0"
     id="path95"
     d="m 119.96814,16.197941 0,-7.8750004 1.03125,0 0,7.8750004 -1.03125,0 z m 2.64813,0 0,-5.70313 0.875,0 0,0.8125 q 0.625,-0.9375 1.8125,-0.9375 0.51563,0 0.95313,0.1875 0.4375,0.17188 0.64062,0.48438 0.21875,0.29687 0.3125,0.70312 0.0469,0.28125 0.0469,0.95313 l 0,3.5 -0.96875,0 0,-3.46875 q 0,-0.59375 -0.10938,-0.875 -0.10937,-0.29688 -0.40625,-0.46875 -0.28125,-0.1875 -0.67187,-0.1875 -0.60938,0 -1.0625,0.39062 -0.45313,0.39063 -0.45313,1.5 l 0,3.10938 -0.96875,0 z m 5.94214,-6.7656304 0,-1.10937 0.96875,0 0,1.10937 -0.96875,0 z m 0,6.7656304 0,-5.70313 0.96875,0 0,5.70313 -0.96875,0 z m 6.08621,-2.09375 0.9375,0.125 q -0.14062,0.98437 -0.79687,1.54687 -0.64063,0.54688 -1.5625,0.54688 -1.17188,0 -1.89063,-0.76563 -0.70312,-0.76562 -0.70312,-2.1875 0,-0.92187 0.29687,-1.60937 0.3125,-0.70313 0.9375,-1.04688 0.625,-0.34375 1.35938,-0.34375 0.92187,0 1.51562,0.46875 0.59375,0.46875 0.76563,1.32813 l -0.95313,0.14062 q -0.125,-0.5625 -0.46875,-0.84375 -0.34375,-0.29687 -0.82812,-0.29687 -0.71875,0 -1.1875,0.53125 -0.45313,0.51562 -0.45313,1.64062 0,1.15625 0.4375,1.67188 0.4375,0.51562 1.15625,0.51562 0.5625,0 0.9375,-0.34375 0.39063,-0.34375 0.5,-1.07812 z m 1.60938,-4.6718804 0,-1.10937 0.96875,0 0,1.10937 -0.96875,0 z m 0,6.7656304 0,-5.70313 0.96875,0 0,5.70313 -0.96875,0 z m 6.08624,-0.70313 q -0.54687,0.45313 -1.04687,0.64063 -0.48438,0.1875 -1.0625,0.1875 -0.9375,0 -1.45313,-0.45313 -0.5,-0.46875 -0.5,-1.17187 0,-0.42188 0.1875,-0.76563 0.20313,-0.34375 0.5,-0.54687 0.3125,-0.21875 0.70313,-0.32813 0.28125,-0.0781 0.85937,-0.14062 1.17188,-0.14063 1.71875,-0.34375 0.0156,-0.1875 0.0156,-0.25 0,-0.59375 -0.28125,-0.82813 -0.35938,-0.32812 -1.09375,-0.32812 -0.6875,0 -1.01563,0.23437 -0.3125,0.23438 -0.46875,0.84375 l -0.95312,-0.125 q 0.125,-0.60937 0.42187,-0.98437 0.29688,-0.375 0.85938,-0.5625 0.5625,-0.20313 1.29687,-0.20313 0.73438,0 1.1875,0.17188 0.45313,0.17187 0.65625,0.4375 0.21875,0.25 0.3125,0.64062 0.0469,0.25 0.0469,0.90625 l 0,1.28125 q 0,1.34375 0.0625,1.70313 0.0625,0.35937 0.25,0.6875 l -1.01563,0 q -0.15625,-0.29688 -0.1875,-0.70313 z m -0.0937,-2.15625 q -0.51562,0.21875 -1.57812,0.35938 -0.59375,0.0937 -0.84375,0.20312 -0.23438,0.0937 -0.375,0.3125 -0.14063,0.20313 -0.14063,0.45313 0,0.39062 0.29688,0.65625 0.29687,0.25 0.85937,0.25 0.5625,0 0.98438,-0.25 0.4375,-0.25 0.65625,-0.67188 0.14062,-0.32812 0.14062,-0.96875 l 0,-0.34375 z m 2.27023,2.85938 0,-7.8750004 0.96875,0 0,7.8750004 -0.96875,0 z m 2.39875,-6.7656304 0,-1.10937 0.96875,0 0,1.10937 -0.96875,0 z m 0,6.7656304 0,-5.70313 0.96875,0 0,5.70313 -0.96875,0 z m 1.85183,0 0,-0.78125 3.625,-4.17188 q -0.60937,0.0312 -1.09375,0.0312 l -2.3125,0 0,-0.78125 4.65625,0 0,0.64063 -3.09375,3.625 -0.59375,0.65625 q 0.65625,-0.0469 1.21875,-0.0469 l 2.64063,0 0,0.82813 -5.04688,0 z m 9.5625,-0.70313 q -0.54687,0.45313 -1.04687,0.64063 -0.48438,0.1875 -1.0625,0.1875 -0.9375,0 -1.45313,-0.45313 -0.5,-0.46875 -0.5,-1.17187 0,-0.42188 0.1875,-0.76563 0.20313,-0.34375 0.5,-0.54687 0.3125,-0.21875 0.70313,-0.32813 0.28125,-0.0781 0.85937,-0.14062 1.17188,-0.14063 1.71875,-0.34375 0.0156,-0.1875 0.0156,-0.25 0,-0.59375 -0.28125,-0.82813 -0.35938,-0.32812 -1.09375,-0.32812 -0.6875,0 -1.01563,0.23437 -0.3125,0.23438 -0.46875,0.84375 l -0.95312,-0.125 q 0.125,-0.60937 0.42187,-0.98437 0.29688,-0.375 0.85938,-0.5625 0.5625,-0.20313 1.29687,-0.20313 0.73438,0 1.1875,0.17188 0.45313,0.17187 0.65625,0.4375 0.21875,0.25 0.3125,0.64062 0.0469,0.25 0.0469,0.90625 l 0,1.28125 q 0,1.34375 0.0625,1.70313 0.0625,0.35937 0.25,0.6875 l -1.01563,0 q -0.15625,-0.29688 -0.1875,-0.70313 z m -0.0937,-2.15625 q -0.51562,0.21875 -1.57812,0.35938 -0.59375,0.0937 -0.84375,0.20312 -0.23438,0.0937 -0.375,0.3125 -0.14063,0.20313 -0.14063,0.45313 0,0.39062 0.29688,0.65625 0.29687,0.25 0.85937,0.25 0.5625,0 0.98438,-0.25 0.4375,-0.25 0.65625,-0.67188 0.14062,-0.32812 0.14062,-0.96875 l 0,-0.34375 z m 6.02027,0.76563 0.9375,0.125 q -0.14063,0.98437 -0.79688,1.54687 -0.64062,0.54688 -1.5625,0.54688 -1.17187,0 -1.89062,-0.76563 -0.70313,-0.76562 -0.70313,-2.1875 0,-0.92187 0.29688,-1.60937 0.3125,-0.70313 0.9375,-1.04688 0.625,-0.34375 1.35937,-0.34375 0.92188,0 1.51563,0.46875 0.59375,0.46875 0.76562,1.32813 l -0.95312,0.14062 q -0.125,-0.5625 -0.46875,-0.84375 -0.34375,-0.29687 -0.82813,-0.29687 -0.71875,0 -1.1875,0.53125 -0.45312,0.51562 -0.45312,1.64062 0,1.15625 0.4375,1.67188 0.4375,0.51562 1.15625,0.51562 0.5625,0 0.9375,-0.34375 0.39062,-0.34375 0.5,-1.07812 z m 1.60937,-4.6718804 0,-1.10937 0.96875,0 0,1.10937 -0.96875,0 z m 0,6.7656304 0,-5.70313 0.96875,0 0,5.70313 -0.96875,0 z m 1.99246,-2.85938 q 0,-1.57812 0.89063,-2.34375 0.73437,-0.625 1.79687,-0.625 1.17188,0 1.90625,0.76563 0.75,0.76562 0.75,2.125 0,1.10937 -0.32812,1.75 -0.32813,0.625 -0.96875,0.96875 -0.625,0.34375 -1.35938,0.34375 -1.20312,0 -1.95312,-0.76563 -0.73438,-0.76562 -0.73438,-2.21875 z m 1,0 q 0,1.10938 0.46875,1.65625 0.48438,0.53125 1.21875,0.53125 0.71875,0 1.1875,-0.54687 0.48438,-0.54688 0.48438,-1.67188 0,-1.04687 -0.48438,-1.59375 -0.48437,-0.54687 -1.1875,-0.54687 -0.73437,0 -1.21875,0.54687 -0.46875,0.53125 -0.46875,1.625 z m 0.82813,-3.5468704 0.71875,-1.51563 1.26562,0 -1.17187,1.51563 -0.8125,0 z m 4.45776,6.4062504 0,-5.70313 0.875,0 0,0.8125 q 0.625,-0.9375 1.8125,-0.9375 0.51563,0 0.95313,0.1875 0.4375,0.17188 0.64062,0.48438 0.21875,0.29687 0.3125,0.70312 0.0469,0.28125 0.0469,0.95313 l 0,3.5 -0.96875,0 0,-3.46875 q 0,-0.59375 -0.10938,-0.875 -0.10937,-0.29688 -0.40625,-0.46875 -0.28125,-0.1875 -0.67187,-0.1875 -0.60938,0 -1.0625,0.39062 -0.45313,0.39063 -0.45313,1.5 l 0,3.10938 -0.96875,0 z m 8.8559,2.20312 -0.10938,-0.90625 q 0.3125,0.0781 0.54688,0.0781 0.32812,0 0.51562,-0.10938 0.20313,-0.10937 0.3125,-0.29687 0.0937,-0.14063 0.29688,-0.71875 0.0312,-0.0781 0.0937,-0.23438 l -2.17188,-5.71875 1.04688,0 1.1875,3.29688 q 0.23437,0.64062 0.40625,1.32812 0.17187,-0.67187 0.40625,-1.29687 l 1.21875,-3.32813 0.96875,0 -2.17188,5.79688 q -0.34375,0.9375 -0.54687,1.29687 -0.25,0.48438 -0.59375,0.70313 -0.32813,0.21875 -0.78125,0.21875 -0.28125,0 -0.625,-0.10938 z" />
  <path
     style="fill:#000000;fill-rule:nonzero"
     inkscape:connector-curvature="0"
     id="path97"
     d="m 136.53238,29.197941 0,-7.875 0.96875,0 0,2.82812 q 0.6875,-0.78125 1.71875,-0.78125 0.625,0 1.09375,0.25 0.46875,0.25 0.67187,0.6875 0.20313,0.4375 0.20313,1.28125 l 0,3.60938 -0.96875,0 0,-3.60938 q 0,-0.73437 -0.3125,-1.0625 -0.3125,-0.32812 -0.89063,-0.32812 -0.4375,0 -0.8125,0.21875 -0.375,0.21875 -0.54687,0.60937 -0.15625,0.375 -0.15625,1.04688 l 0,3.125 -0.96875,0 z m 5.56711,-2.85938 q 0,-1.57812 0.89062,-2.34375 0.73438,-0.625 1.79688,-0.625 1.17187,0 1.90625,0.76563 0.75,0.76562 0.75,2.125 0,1.10937 -0.32813,1.75 -0.32812,0.625 -0.96875,0.96875 -0.625,0.34375 -1.35937,0.34375 -1.20313,0 -1.95313,-0.76563 -0.73437,-0.76562 -0.73437,-2.21875 z m 1,0 q 0,1.10938 0.46875,1.65625 0.48437,0.53125 1.21875,0.53125 0.71875,0 1.1875,-0.54687 0.48437,-0.54688 0.48437,-1.67188 0,-1.04687 -0.48437,-1.59375 -0.48438,-0.54687 -1.1875,-0.54687 -0.73438,0 -1.21875,0.54687 -0.46875,0.53125 -0.46875,1.625 z m 5.28589,2.85938 0,-5.70313 0.875,0 0,0.79688 q 0.26562,-0.42188 0.70312,-0.67188 0.45313,-0.25 1.01563,-0.25 0.64062,0 1.04687,0.26563 0.40625,0.25 0.57813,0.73437 0.67187,-1 1.75,-1 0.85937,0 1.3125,0.46875 0.45312,0.46875 0.45312,1.4375 l 0,3.92188 -0.95312,0 0,-3.59375 q 0,-0.57813 -0.0937,-0.82813 -0.0937,-0.26562 -0.34375,-0.42187 -0.25,-0.15625 -0.57813,-0.15625 -0.60937,0 -1.01562,0.40625 -0.39063,0.40625 -0.39063,1.28125 l 0,3.3125 -0.96875,0 0,-3.70313 q 0,-0.64062 -0.23437,-0.96875 -0.23438,-0.32812 -0.76563,-0.32812 -0.40625,0 -0.76562,0.21875 -0.34375,0.21875 -0.5,0.64062 -0.15625,0.40625 -0.15625,1.1875 l 0,2.95313 -0.96875,0 z m 8.89236,-6.76563 0,-1.10937 0.96875,0 0,1.10937 -0.96875,0 z m 0,6.76563 0,-5.70313 0.96875,0 0,5.70313 -0.96875,0 z m 2.35184,0 0,-5.70313 0.875,0 0,0.8125 q 0.625,-0.9375 1.8125,-0.9375 0.51562,0 0.95312,0.1875 0.4375,0.17188 0.64063,0.48438 0.21875,0.29687 0.3125,0.70312 0.0469,0.28125 0.0469,0.95313 l 0,3.5 -0.96875,0 0,-3.46875 q 0,-0.59375 -0.10937,-0.875 -0.10938,-0.29688 -0.40625,-0.46875 -0.28125,-0.1875 -0.67188,-0.1875 -0.60937,0 -1.0625,0.39062 -0.45312,0.39063 -0.45312,1.5 l 0,3.10938 -0.96875,0 z m 5.75464,0.46875 0.9375,0.14062 q 0.0625,0.4375 0.32812,0.64063 0.35938,0.26562 0.98438,0.26562 0.67187,0 1.03125,-0.26562 0.375,-0.26563 0.5,-0.75 0.0781,-0.29688 0.0781,-1.25 -0.64062,0.75 -1.59375,0.75 -1.17187,0 -1.8125,-0.84375 -0.64062,-0.85938 -0.64062,-2.04688 0,-0.8125 0.29687,-1.5 0.29688,-0.6875 0.84375,-1.0625 0.5625,-0.375 1.32813,-0.375 1,0 1.65625,0.8125 l 0,-0.6875 0.89062,0 0,4.92188 q 0,1.34375 -0.26562,1.89062 -0.26563,0.5625 -0.85938,0.875 -0.59375,0.32813 -1.45312,0.32813 -1.01563,0 -1.64063,-0.46875 -0.625,-0.45313 -0.60937,-1.375 z m 0.79687,-3.42188 q 0,1.125 0.4375,1.64063 0.45313,0.51562 1.125,0.51562 0.67188,0 1.125,-0.51562 0.45313,-0.51563 0.45313,-1.60938 0,-1.04687 -0.46875,-1.57812 -0.46875,-0.53125 -1.125,-0.53125 -0.64063,0 -1.09375,0.53125 -0.45313,0.51562 -0.45313,1.54687 z" />
  <path
     style="fill:#000000;fill-opacity:0;fill-rule:evenodd"
     inkscape:connector-curvature="0"
     id="path99"
     d="m 324.5906,254.58393 c -10.56696,0 -15.8504,0.0158 -21.13385,0.0315 -5.28351,0.0157 -10.56696,0.0315 -21.13391,0.0315" />
  <path
     style="stroke:#000000;stroke-width:1;stroke-linecap:butt;stroke-linejoin:round"
     inkscape:connector-curvature="0"
     id="path101"
     d="m 324.5906,254.58393 c -10.56696,0 -15.8504,0.0158 -21.13385,0.0315 -2.64178,0.008 -5.28351,0.0157 -8.58563,0.0217 -1.65113,0.003 -3.46729,0.005 -5.53113,0.007 l -3.59003,0.001" />
  <path
     style="fill:#000000;fill-rule:evenodd;stroke:#000000;stroke-width:1;stroke-linecap:butt"
     inkscape:connector-curvature="0"
     id="path103"
     d="m 285.74994,254.6456 1.12415,-1.12503 -3.08936,1.12579 3.09021,1.12339 z" />
  <path
     style="fill:#000000;fill-opacity:0;fill-rule:evenodd"
     inkscape:connector-curvature="0"
     id="path105"
     d="m 212.15485,254.58393 c 6.96725,0 10.45026,0.0158 13.93451,0.0315 3.48425,0.0157 6.96979,0.0315 13.93951,0.0315" />
  <path
     style="stroke:#000000;stroke-width:1;stroke-linecap:butt;stroke-linejoin:round"
     inkscape:connector-curvature="0"
     id="path107"
     d="m 212.15485,254.58393 c 6.96725,0 10.45026,0.0158 13.93451,0.0315 3.48425,0.0157 6.96979,0.0315 13.93951,0.0315" />
  <path
     style="fill:#000000;fill-opacity:0;fill-rule:evenodd"
     inkscape:connector-curvature="0"
     id="path109"
     d="m 212.1548,155.08787 c 6.87402,0 10.31103,-6.03937 13.74805,-12.07874 3.43698,-6.03936 6.87399,-12.07873 13.74801,-12.07873" />
  <path
     style="stroke:#000000;stroke-width:1;stroke-linecap:butt;stroke-linejoin:round"
     inkscape:connector-curvature="0"
     id="path111"
     d="m 212.1548,155.08787 c 6.87402,0 10.31103,-6.03937 13.74805,-12.07874 3.43698,-6.03936 6.87399,-12.07873 13.74801,-12.07873" />
  <path
     style="fill:#000000;fill-opacity:0;fill-rule:evenodd"
     inkscape:connector-curvature="0"
     id="path113"
     d="m 212.1548,155.08787 c 6.87402,0 10.31103,0.0158 13.74805,0.0315 3.43698,0.0157 6.87399,0.0315 13.74801,0.0315" />
  <path
     style="stroke:#000000;stroke-width:1;stroke-linecap:butt;stroke-linejoin:round"
     inkscape:connector-curvature="0"
     id="path115"
     d="m 212.1548,155.08787 c 6.87402,0 10.31103,0.0158 13.74805,0.0315 3.43698,0.0157 6.87399,0.0315 13.74801,0.0315" />
  <path
     style="fill:#000000;fill-opacity:0;fill-rule:evenodd"
     inkscape:connector-curvature="0"
     id="path117"
     d="m 212.1548,155.08787 c 6.87402,0 10.31103,5.65353 13.74805,11.3071 3.43698,5.65353 6.87399,11.30707 13.74801,11.30707" />
  <path
     style="stroke:#000000;stroke-width:1;stroke-linecap:butt;stroke-linejoin:round"
     inkscape:connector-curvature="0"
     id="path119"
     d="m 212.1548,155.08787 c 6.87402,0 10.31103,5.65353 13.74805,11.3071 3.43698,5.65353 6.87399,11.30707 13.74801,11.30707" />
  <path
     style="fill:#000000;fill-opacity:0;fill-rule:evenodd"
     inkscape:connector-curvature="0"
     id="path121"
     d="m 94.42255,155.08787 c -12.5,0 -25.00787,-19.10236 -25,-38.20473 0.008,-19.102349 12.53149,-38.204719 25.06299,-38.204719" />
  <path
     style="stroke:#000000;stroke-width:1;stroke-linecap:butt;stroke-linejoin:round"
     inkscape:connector-curvature="0"
     id="path123"
     d="m 94.42255,155.08787 c -12.5,0 -25.00787,-19.10236 -25,-38.20473 0.004,-9.55118 3.13681,-19.102349 7.83514,-26.265739 2.34916,-3.5817 5.0897,-6.56644 8.02613,-8.65577 1.46823,-1.04464 2.98544,-1.86546 4.52722,-2.42511 0.38541,-0.1399 0.7724,-0.26348 1.16052,-0.37016 l 0.11749,-0.031" />
  <path
     style="fill:#000000;fill-rule:evenodd;stroke:#000000;stroke-width:1;stroke-linecap:butt"
     inkscape:connector-curvature="0"
     id="path125"
     d="m 91.08905,79.135371 -0.9646,1.2645 2.91223,-1.52652 -3.21213,-0.70258 z" />
  <path
     style="fill:#000000;fill-opacity:0;fill-rule:evenodd"
     inkscape:connector-curvature="0"
     id="path127"
     d="m 153.28873,92.156101 c 0,12.366869 0.0158,18.548689 0.0315,24.733729 0.0158,6.18505 0.0315,12.37329 0.0315,24.74659" />
  <path
     style="stroke:#000000;stroke-width:1;stroke-linecap:butt;stroke-linejoin:round"
     inkscape:connector-curvature="0"
     id="path129"
     d="m 153.28873,92.156101 c 0,12.366869 0.0158,18.548689 0.0315,24.733719 0.008,3.09253 0.0158,6.18585 0.0216,10.05272 0.003,1.93341 0.005,4.06024 0.007,6.47702 l 0.002,4.78976" />
  <path
     style="fill:#000000;fill-rule:evenodd;stroke:#000000;stroke-width:1;stroke-linecap:butt"
     inkscape:connector-curvature="0"
     id="path131"
     d="m 153.3506,138.20932 -1.12497,-1.12421 1.12561,3.08942 1.12357,-3.09015 z" />
  <path
     style="fill:#000000;fill-opacity:0;fill-rule:evenodd"
     inkscape:connector-curvature="0"
     id="path133"
     d="m 153.22574,32.408071 c 0,8.20473 0.0157,12.3071 0.0315,16.40945 0.0158,4.10236 0.0315,8.20473 0.0315,16.40946" />
  <path
     style="stroke:#000000;stroke-width:1;stroke-linecap:butt;stroke-linejoin:round"
     inkscape:connector-curvature="0"
     id="path135"
     d="m 153.22574,32.408071 c 0,8.20473 0.0157,12.3071 0.0315,16.40945 0.008,2.05118 0.0158,4.10236 0.0216,6.66634 0.003,1.282 0.005,2.69218 0.007,4.29466 l 9.8e-4,2.02136" />
  <path
     style="fill:#000000;fill-rule:evenodd;stroke:#000000;stroke-width:1;stroke-linecap:butt"
     inkscape:connector-curvature="0"
     id="path137"
     d="m 153.28702,61.799891 -1.12515,-1.12402 1.12613,3.0892 1.12304,-3.09032 z" />
  <path
     style="fill:#000000;fill-opacity:0;fill-rule:evenodd"
     inkscape:connector-curvature="0"
     id="path139"
     d="m 153.2887,168.55243 c 0,17.76773 0.0158,26.64966 0.0315,35.53549 0.0157,8.88584 0.0315,17.77558 0.0315,35.55112" />
  <path
     style="stroke:#000000;stroke-width:1;stroke-linecap:butt;stroke-linejoin:round"
     inkscape:connector-curvature="0"
     id="path141"
     d="m 153.2887,168.55243 c 0,17.76773 0.0158,26.64966 0.0315,35.53549 0.008,4.4429 0.0157,8.88681 0.0216,14.44193 0.003,2.77755 0.005,5.83291 0.007,9.30487 l 0.002,8.37723" />
  <path
     style="fill:#000000;fill-rule:evenodd;stroke:#000000;stroke-width:1;stroke-linecap:butt"
     inkscape:connector-curvature="0"
     id="path143"
     d="m 153.3509,236.21195 -1.12485,-1.12433 1.12531,3.08954 1.12387,-3.09003 z" />
  <path
     style="fill:#000000;fill-opacity:0;fill-rule:evenodd"
     inkscape:connector-curvature="0"
     id="path145"
     d="m 94.42258,254.58393 c -19.64041,0 -39.2887,-43.97638 -39.28082,-87.95276 0.008,-43.97638 19.6719,-87.952759 39.34381,-87.952759" />
  <path
     style="stroke:#000000;stroke-width:1;stroke-linecap:butt;stroke-linejoin:round"
     inkscape:connector-curvature="0"
     id="path147"
     d="m 94.42258,254.58393 c -19.64041,0 -39.2887,-43.97638 -39.28082,-87.95276 0.004,-21.98819 4.9219,-43.97638 12.29788,-60.46751 3.68799,-8.245579 7.99048,-15.116889 12.60049,-19.926809 2.305,-2.40495 4.68683,-4.29457 7.10724,-5.58293 1.21018,-0.64418 2.42999,-1.13806 3.6546,-1.47089 l 0.28388,-0.0724" />
  <path
     style="fill:#000000;fill-rule:evenodd;stroke:#000000;stroke-width:1;stroke-linecap:butt"
     inkscape:connector-curvature="0"
     id="path149"
     d="m 91.08585,79.110601 -0.97379,1.25742 2.92328,-1.50525 -3.20691,-0.72597 z" />
  <path
     style="fill:#000000;fill-opacity:0;fill-rule:evenodd"
     inkscape:connector-curvature="0"
     id="path151"
     d="m 5,154.59967 75.52756,0 0,26.92914 -75.52756,0 z" />
  <path
     style="fill:#000000;fill-rule:nonzero"
     inkscape:connector-curvature="0"
     id="path153"
     d="m 18.84375,176.39967 -1.14063,0 0,-7.28125 q -0.42187,0.39062 -1.09375,0.79687 -0.65625,0.39063 -1.1875,0.57813 l 0,-1.10938 q 0.95313,-0.4375 1.67188,-1.07812 0.71875,-0.64063 1.01562,-1.25 l 0.73438,0 0,9.34375 z m 3.4281,0 0,-9.3125 1.14063,0 0,5.3125 2.70312,-2.73438 1.48438,0 -2.57813,2.5 2.84375,4.23438 -1.40625,0 -2.23437,-3.45313 -0.8125,0.78125 0,2.67188 -1.14063,0 z m 6.85156,0 0,-9.3125 1.21875,0 0,3.82812 4.84375,0 0,-3.82812 1.23438,0 0,9.3125 -1.23438,0 0,-4.39063 -4.84375,0 0,4.39063 -1.21875,0 z m 8.82828,0 0,-0.92188 4.29688,-4.9375 q -0.73438,0.0469 -1.29688,0.0469 l -2.73437,0 0,-0.92188 5.5,0 0,0.75 -3.64063,4.28125 -0.71875,0.78125 q 0.78125,-0.0625 1.45313,-0.0625 l 3.10937,0 0,0.98438 -5.96875,0 z" />
  <path
     style="fill:#000000;fill-opacity:0;fill-rule:evenodd"
     inkscape:connector-curvature="0"
     id="path155"
     d="m 66.45932,103.42513 75.52756,0 0,26.92915 -75.52756,0 z" />
  <path
     style="fill:#000000;fill-rule:nonzero"
     inkscape:connector-curvature="0"
     id="path157"
     d="m 80.30307,125.22513 -1.14063,0 0,-7.28125 q -0.42187,0.39063 -1.09375,0.79688 -0.65625,0.39062 -1.1875,0.57812 l 0,-1.10937 q 0.95313,-0.4375 1.67188,-1.07813 0.71875,-0.64062 1.01562,-1.25 l 0.73438,0 0,9.34375 z m 3.1156,-4.59375 q 0,-1.64062 0.32813,-2.64062 0.34375,-1.01563 1.01562,-1.5625 0.67188,-0.54688 1.6875,-0.54688 0.75,0 1.3125,0.3125 0.5625,0.29688 0.92188,0.85938 0.375,0.5625 0.57812,1.39062 0.21875,0.8125 0.21875,2.1875 0,1.64063 -0.34375,2.65625 -0.32812,1 -1,1.54688 -0.67187,0.54687 -1.6875,0.54687 -1.34375,0 -2.125,-0.96875 -0.90625,-1.15625 -0.90625,-3.78125 z m 1.17188,0 q 0,2.29688 0.53125,3.0625 0.53125,0.75 1.32812,0.75 0.78125,0 1.3125,-0.75 0.54688,-0.76562 0.54688,-3.0625 0,-2.29687 -0.54688,-3.04687 -0.53125,-0.75 -1.32812,-0.75 -0.78125,0 -1.26563,0.65625 -0.57812,0.85937 -0.57812,3.14062 z m 6.5531,4.59375 0,-9.3125 1.14062,0 0,5.3125 2.70313,-2.73437 1.48437,0 -2.57812,2.5 2.84375,4.23437 -1.40625,0 -2.23438,-3.45312 -0.8125,0.78125 0,2.67187 -1.14062,0 z m 6.85156,0 0,-9.3125 1.21875,0 0,3.82813 4.84375,0 0,-3.82813 1.23437,0 0,9.3125 -1.23437,0 0,-4.39062 -4.84375,0 0,4.39062 -1.21875,0 z m 8.82828,0 0,-0.92187 4.29687,-4.9375 q -0.73437,0.0469 -1.29687,0.0469 l -2.73438,0 0,-0.92187 5.5,0 0,0.75 -3.64062,4.28125 -0.71875,0.78125 q 0.78125,-0.0625 1.45312,-0.0625 l 3.10938,0 0,0.98437 -5.96875,0 z" />
</svg>
